<?xml version="1.0" encoding="utf-8"?>
<!-- Generator: Adobe Illustrator 24.0.2, SVG Export Plug-In . SVG Version: 6.00 Build 0)  -->
<svg version="1.1" id="Layer_1" xmlns="http://www.w3.org/2000/svg" xmlns:xlink="http://www.w3.org/1999/xlink" x="0px" y="0px"
	 viewBox="0 0 384 128" style="enable-background:new 0 0 384 128;" xml:space="preserve">
<style type="text/css">
	.st0{fill:#F47354;}
	.st1{fill:#F58150;}
	.st2{fill:#EE4C62;}
	.st3{fill:#F1605C;}
	.st4{fill:#F6894D;}
	.st5{fill:#EE6455;}
	.st6{fill:#F36C59;}
	.st7{fill:#DC5A46;}
	.st8{fill:#F36E56;}
	.st9{fill:#F16759;}
	.st10{fill:#CF4645;}
	.st11{fill:#E95759;}
	.st12{fill:#C23D3B;}
	.st13{fill:#E34C56;}
	.st14{fill:#F57B52;}
	.st15{fill:url(#SVGID_1_);}
	.st16{fill:url(#SVGID_2_);}
	.st17{fill:url(#SVGID_3_);}
	.st18{fill:url(#SVGID_4_);}
	.st19{fill:url(#SVGID_5_);}
	.st20{fill:url(#SVGID_6_);}
	.st21{fill:url(#SVGID_7_);}
	.st22{fill:url(#SVGID_8_);}
	.st23{fill:url(#SVGID_9_);}
	.st24{fill:url(#SVGID_10_);}
	.st25{fill:url(#SVGID_11_);}
</style>
<g>
	<path class="st0" d="M64.06,47.11c-2.41,0.13-4.1,1.7-5.96,2.95c-0.33,0.22-0.54,0.61-0.98,0.65c-0.66-0.26-1.35,0.77-2-0.04
		c-0.13-0.71,0.42-1.84-0.9-1.86c-2.26-0.03-4.42-0.71-6.65-0.83c-0.89-0.05-1.06-0.59-0.74-1.15c0.74-1.28-0.17-1.18-0.94-1.3
		c-1.61-0.25-3.34,0.01-4.74-1.14c-0.25-0.21-0.58-0.21-0.9-0.09c-0.74,0.28-1.53,0.2-2.27,0.12c-0.98-0.1-2.12-0.07-2.24-1.56
		c-0.05-0.58-0.55-0.81-1.19-0.87c-1.42-0.12-2.83-0.38-4.26-0.5c-0.61-0.05-0.8-0.28-0.96-0.85c-0.51-1.74-1-1.93-2.77-1.27
		c-1.23,0.46-1.59,0.26-1.76-1.05c-0.13-1.01-0.61-1.68-1.67-1.42c-1.43,0.36-1.56-0.46-1.58-1.49c-0.01-0.36,0-0.72-0.08-1.07
		c-0.31-1.37-0.85-1.6-1.93-0.68c-0.72,0.61-1.39,0.78-2.32,0.54c-1.23-0.31-2.15-1.51-3.61-1.17c-0.33,0.08-0.4-0.29-0.21-0.56
		c0.49-0.69,0.28-1.41,0.27-2.18c-0.89,0.37-1.6,0.77-2.42,0.89c1.28-1.92,2.95-3.43,4.78-4.82c2.1-1.6,4.22-3.09,6.78-3.85
		c0.67,0.01,1.32-0.03,1.73-0.67c0.02-0.06,0.06-0.09,0.12-0.07c0.43,0.1,0.82,0.1,1.28-0.01c2.19-0.52,4.4-1,6.69-0.82
		c0.03,0.57-0.63,0.43-0.81,0.78c-0.3,0.01-0.62-0.04-0.81,0.27c-0.37,0.04-0.8-0.12-1.08,0.27c0,0.09,0,0.18,0,0.27
		c-0.66-0.06-1.21,0.18-1.76,0.53c-2.49,1.56-4.12,3.87-5.73,6.37c0.84,0.18,1.66,0.15,2.3,0.74c0.89,0.82,1.73,0.65,2.35-0.35
		c0.43-0.68,0.78-0.62,1.21-0.03c0.13,0.18,0.3,0.46,0.45,0.46c1.51,0,2.66,0.39,2.69,2.2c0,0.07,0.11,0.17,0.18,0.19
		c1.38,0.25,2.58,1.66,4.17,0.65c0.24-0.16,0.68-0.29,0.89-0.18c1.73,0.94,4.22-0.08,5.48,2.11c0.11,0.2,0.45,0.28,0.7,0.38
		c0.48,0.2,0.88,0.5,1.02,1.01c0.34,1.22,1.33,1.65,2.36,1.55c1.48-0.14,2.55,1.15,4,0.94c0.13-0.02,0.42,0.25,0.46,0.43
		c0.34,1.66,1.28,1.24,2.31,0.73c0.5-0.25,1.2-0.35,1.42,0.25c0.45,1.24,1.39,1.22,2.4,1.22c1.94,0,3.81,0.18,4.77,2.26
		c0.05,0.11,0.19,0.26,0.29,0.26c1.52,0.07,1.88,1.18,2.17,2.36C64.07,46.79,64.06,46.95,64.06,47.11z"/>
	<path class="st1" d="M58.62,24.15c1.82-1.38,3.96-2.05,6.11-2.65c3.49-0.98,7.03-1.43,10.64-0.75c-1.6,0.39-3.22,0.08-4.83,0.18
		c-3.06,0.18-6.02,0.76-8.8,2.13c-0.27,0.13-0.76,0.1-0.52,0.55c0.74,1.39-0.19,1.37-1.12,1.41c-0.27,0.01-0.55,0.15-0.51,0.49
		c0.03,0.3,0.32,0.25,0.53,0.28c0.87,0.13,1.57-0.28,2.28-0.69c0.76-0.44,2.75-0.28,2.89,0.36c0.4,1.77,1.7,1.42,2.87,1.41
		c0.98-0.01,1.69,0.28,1.83,1.36c0.09,0.73,0.58,0.82,1.17,0.81c1.17-0.01,2.35-0.03,3.52,0.01c0.56,0.02,1.41,0.03,1.47,0.67
		c0.15,1.64,1.24,1.5,2.34,1.48c0.63-0.01,1.28-0.1,1.89,0.03c0.82,0.16,2.12-0.06,2.36,0.66c0.53,1.62,1.68,1.17,2.72,1.19
		c0.89,0.02,1.73,0.18,1.81,1.19c0.09,1.16,0.78,1.26,1.66,1.26c1.2,0,2.35-0.08,3.43,0.8c0.53,0.44,1.78,1.17,2.1-0.53
		c0.06-0.3,0.65-0.3,0.66-0.19c0.09,1.07,1.43,1.49,1.36,2.56c-0.09,1.48,1.51,1.84,1.72,3.1c0.21-0.72-0.43-1.39,0.25-1.98
		c0.67,1.76,1.14,3.57,1.24,5.46c-0.47,2.31,0.12,4.69-0.46,6.99c-0.39-0.09-0.58,0.58-0.93,0.31c-0.3-0.23-0.15-0.67-0.11-1.02
		c0.03-0.26,0.16-0.52,0.21-0.78c0.23-1.48,0.04-1.57-1.45-1.79c-1.17-0.17-2.82,0.35-3.17-1.59c-0.03-0.16-0.32-0.35-0.52-0.39
		c-1.54-0.34-2.95-1.3-4.65-0.98c-0.64,0.12-1.33-0.07-2-0.14c-1.21-0.12-1.51-0.74-1.44-1.79c0.05-0.69-0.06-1.38-0.96-1.27
		c-2.19,0.27-4.25-0.72-6.42-0.56c-0.54,0.04-0.84-0.08-1.07-0.71c-0.52-1.47-2.59-1.47-3.09-3.04c-0.01-0.03-0.17-0.02-0.26-0.03
		c-2.05-0.18-4.1-0.37-6.15-0.54c-0.46-0.04-0.87-0.05-1.25-0.39c-1.44-1.26-3.1-1.93-5.05-1.79c-0.86,0.06-1.28-0.26-1.91-1.07
		c-0.73-0.93-1.87-1.83-2.88-2.58c-0.92-0.69-2.57-0.56-3.89-0.53c-1.73,0.04-2.25-0.3-2.26-2.03c0.48,0.02,1.03-0.11,1.1,0.64
		c0.03,0.33,0.19,0.65,0.59,0.59c0.37-0.05,0.45-0.39,0.47-0.72c0.02-0.31-0.03-0.7,0.41-0.72c0.44-0.02,0.61,0.3,0.67,0.7
		c0.07,0.4,0.5,1.01,0.64,0.69c0.36-0.85,1.66-1.06,1.5-2.07c-0.22-1.36,0.74-1.86,1.58-2.29c0.58-0.3,0.8-0.62,0.88-1.18
		c0.15-0.08,0.3-0.17,0.45-0.25C58.39,24.33,58.51,24.24,58.62,24.15z"/>
	<path class="st2" d="M67.31,92.1c-2.06,2.22-4.28,4.28-6.43,6.41c-1.62,1.59-3.22,3.22-4.74,4.92c-0.95,1.06-2.31,1.67-3.01,2.98
		c-0.22,0.42-0.58,0.43-0.97,0.04c-3.49-3.39-6.9-6.84-8.52-11.59c-0.26-0.75-0.45-1.52-0.67-2.29c0.11-0.05,0.21-0.1,0.32-0.15
		c-0.12-0.03-0.24-0.06-0.36-0.1c-0.06-0.2-0.12-0.39-0.18-0.59c0.6-1.23-0.37-2.31-0.35-3.49c-0.08-1.43,0.22-2.87-0.16-4.29
		c-0.06-0.3-0.07-0.59,0.11-0.86c0.65-0.47,0.21-1.13,0.31-1.7c-0.11-0.73,0.3-1.37,0.34-2.08c0.57,0.02,0.41-0.63,0.76-0.81
		c0.07,0.62-0.26,1.58,0.75,1.58c2.67,0.02,3.65,2.89,5.98,3.44c0.15,0.04,0.25,0.45,0.3,0.71c0.06,0.33,0.19,0.63,0.47,0.78
		c0.97,0.52,1.37,1.49,1.96,2.33c0.86,1.23,1.92,2.28,2.56,3.72c0.36,0.82,1.44,1.31,1.29,2.48c-0.03,0.26,0.17,0.52,0.5,0.53
		c0.32,0,0.45-0.25,0.53-0.52c0.31-1.12,0.62-2.25,0.55-3.43c0.18-0.81,0.36-1.62,0.54-2.43c0.74,0.08,1.41-0.23,2.1-0.39
		c1.55-0.35,1.98-0.16,2.5,1.32c0.18,0.53,0.52,0.8,0.99,0.67c1.39-0.4,2.33,0.42,3.34,1.11c0.01,0.28,0.02,0.56,0.02,0.84
		c0,0,0.01-0.02,0.01-0.02c-0.09,0.12-0.19,0.23-0.28,0.35c-0.06,0.07-0.12,0.14-0.18,0.21C67.55,91.89,67.43,92,67.31,92.1z
		 M57.51,95.68c-0.05-0.19-0.12-0.33-0.28-0.26c-0.09,0.04-0.16,0.2-0.16,0.31c-0.01,0.14,0.1,0.28,0.25,0.21
		C57.42,95.9,57.46,95.75,57.51,95.68z"/>
	<path class="st3" d="M68.11,90.42c-1-0.69-1.95-1.51-3.34-1.11c-0.47,0.13-0.81-0.14-0.99-0.67c-0.52-1.48-0.95-1.67-2.5-1.32
		c-0.69,0.16-1.37,0.46-2.1,0.39c0-0.81-0.01-1.62-0.01-2.44c0-1.85,0.08-3.7-0.02-5.54c-0.07-1.32-0.04-2.7-0.71-3.92
		c0.02-0.38,0.03-0.76,0.05-1.13c0.14-0.48,0.42-0.98-0.27-1.28c-0.04-0.28-0.07-0.56-0.11-0.83c0.45-0.72,0.05-1.29-0.32-1.87
		c0,0,0.02,0,0.02,0c0-0.85,0-1.71,0-2.59c0.51,0.18,0.27,0.97,0.86,1.06c0.45-0.19,0.08-0.69,0.39-0.93
		c0.21,1.18,1.19,2.22,2.01,2.3c1.55,0.17,3.02,0.97,4.63,0.67c1.44,0.27,2.7,1.12,3.85,1.83c1.1,0.69,1.99,1.3,3.32,1.16
		c0.8-0.09,1.63-0.1,2.43,0c1.27,0.17,2.57,0.34,3.13,1.84c0.23,0.62,0.8,1.34,1.52,1.06c0.84-0.33,1.7-0.25,2.52-0.5l0.06,0.07
		c-0.79,1.68-2.54,2.43-3.66,3.79c-2.32,2.83-5.38,4.93-7.67,7.79c-0.12,0.09-0.24,0.19-0.36,0.28c0,0,0.02-0.03,0.02-0.03
		c-0.09,0.11-0.19,0.23-0.28,0.34c-0.07,0.07-0.15,0.14-0.22,0.21c-0.39-0.01-0.61,0.15-0.58,0.56c0,0,0-0.03,0-0.03
		c-0.1,0.09-0.19,0.19-0.29,0.28c0,0,0.01-0.01,0.01-0.01C68.95,89.88,68.56,90.23,68.11,90.42z"/>
	<path class="st4" d="M98.44,39.3c-0.68,0.59-0.04,1.25-0.25,1.98c-0.21-1.26-1.81-1.62-1.72-3.1c0.07-1.07-1.27-1.49-1.36-2.56
		c-0.01-0.11-0.6-0.11-0.66,0.19c-0.33,1.7-1.57,0.97-2.1,0.53c-1.08-0.89-2.23-0.8-3.43-0.8c-0.88,0-1.57-0.1-1.66-1.26
		c-0.08-1.01-0.92-1.17-1.81-1.19c-1.04-0.02-2.19,0.42-2.72-1.19c-0.24-0.72-1.54-0.5-2.36-0.66c-0.61-0.12-1.26-0.03-1.89-0.03
		c-1.1,0.02-2.19,0.16-2.34-1.48c-0.06-0.64-0.9-0.65-1.47-0.67c-1.17-0.05-2.34-0.02-3.52-0.01c-0.59,0-1.08-0.09-1.17-0.81
		c-0.13-1.07-0.85-1.37-1.83-1.36c-1.17,0.01-2.47,0.36-2.87-1.41c-0.14-0.63-2.13-0.79-2.89-0.36c-0.71,0.41-1.41,0.81-2.28,0.69
		c-0.21-0.03-0.5,0.02-0.53-0.28c-0.04-0.34,0.24-0.48,0.51-0.49c0.93-0.05,1.86-0.02,1.12-1.41c-0.24-0.45,0.25-0.42,0.52-0.55
		c2.77-1.37,5.73-1.95,8.8-2.13c1.61-0.09,3.23,0.21,4.83-0.18c0.2,0.03,0.39,0.05,0.59,0.08c2.09,0.91,4.36,1.13,6.54,1.7
		c0.08-0.02,0.16-0.01,0.23,0.04c0.44,0.81,1.21,0.95,2.02,1.03l0.07-0.03c0,0,0.06,0.05,0.06,0.05c0.51,0.61,1.07,1.13,1.95,1.08
		c2.16,1.06,3.9,2.68,5.53,4.39c2.52,2.66,4.52,5.66,5.72,9.15c-0.06,0-0.13-0.01-0.19-0.01c-0.04-0.02-0.08-0.03-0.12-0.05
		c0.03,0.02,0.07,0.05,0.1,0.07c0.1,0.09,0.19,0.18,0.29,0.26C98.25,38.77,98.35,39.03,98.44,39.3z"/>
	<path class="st5" d="M65.67,71.22c-1.6,0.3-3.07-0.5-4.63-0.67c-0.82-0.09-1.79-1.12-2.01-2.3c-0.31,0.24,0.06,0.75-0.39,0.93
		c-0.59-0.09-0.35-0.88-0.86-1.06c0,0.88,0,1.73,0,2.59c-0.7-2.12-0.9-4.34-1.26-6.52c0.25-0.21,0.51-0.79,0.83-0.38
		c1.3,1.62,0.99-0.09,1.26-0.57c0.68,0.73,2.1,1.03,3.21,0.44c1.13-0.6,2.35,0.01,3.37-0.36c1.82-0.66,3.64-0.35,5.46-0.47
		c0.36-0.02,0.8,0.06,1.05-0.11c2.02-1.39,4.8-0.5,6.7-2.26c0.13-0.12,0.51,0.03,0.77,0.07c2.51,0.41,5.17-0.35,7.58,0.94
		c0,0.09,0.01,0.18,0.01,0.28c-0.08,1.29,0.4,2.72-0.18,3.84c-1.16,2.23-1.05,4.64-1.45,6.97c-0.73-0.05-1.11-0.5-1.38-1.12
		c-0.11-0.25-0.32-0.5-0.62-0.37c-0.17,0.07-0.37,0.31-0.38,0.49c-0.06,0.59-0.12,1.13-0.91,0.98c-0.7-0.13-1.32-0.36-1.31-1.26
		c0-0.53-0.24-0.86-0.81-0.86c-0.49,0-0.8,0.27-0.79,0.74c0.02,0.89-0.56,0.93-1.17,0.85c-1.28-0.15-2.64,0.43-3.83-0.7
		c-0.43-0.41-1.37-0.06-2.08,0.1c-1.45,0.33-1.84-0.01-1.87-1.4c0-0.23,0.01-0.45,0-0.68c-0.08-1.26-0.94-1.75-2.02-1.1
		C66.83,68.93,65.85,69.77,65.67,71.22z"/>
	<path class="st6" d="M6.94,39.04c0.08-0.19,0.16-0.39,0.24-0.58C8.19,38.15,7.94,37.3,8,36.58c0,0-0.01,0-0.01,0
		c0.1,0.01,0.21,0.02,0.31,0.03c0.07,0.32-0.16,0.73,0.36,0.99c0.32-0.93,0.95-0.93,1.8-0.76c1.2,0.23,2.21,1.2,3.54,0.93
		c0.12-0.02,0.4,0.25,0.45,0.43c0.21,0.86,1.01,1.14,1.6,1.55c1.15,0.82,3.4,0.33,4.24-0.82c0.39-0.53,0.55-0.38,0.8,0.14
		c0.53,1.13,1.49,1.61,2.73,1.58c0.49-0.01,0.99,0,1.49,0.01c0.24,0,0.46,0.07,0.51,0.34c0.05,0.28-0.15,0.44-0.39,0.43
		c-0.73-0.02-0.93,0.37-0.89,1.02c0.04,0.55,0.02,1.18,0.63,1.36c0.59,0.18,1.33,0.29,1.75-0.31c0.82-1.16,2.01-0.8,2.95-0.57
		c0.81,0.19,0.85,1.28,0.89,2.08c0.04,0.74,0.35,1.06,1.08,1.05c0.63-0.01,1.24,0.04,1.75-0.49c0.5-0.52,1.23-0.47,1.5,0.12
		c0.78,1.72,2.7,2.01,3.84,3.25c1.08,1.18,2.64,1.13,4.05,1.42c0.55,0.11,1.12-0.12,1.44-0.58c0.51-0.72,0.81-0.43,1.2,0.1
		c0.26,0.36,0.69,0.61,0.91,0.99c0.49,0.86,0.92,1.03,1.77,0.32c0.85-0.71,1.76-0.33,1.95,0.72c0.13,0.69,0.48,0.9,1.1,0.89
		c0.63-0.01,1.26,0,1.89,0c0.45,0.48,0.89-0.18,1.34-0.02l0.05,0.05c-0.93,1.45-2.28,2.51-3.48,3.71c-0.46,0.47-1.04,0.1-1.54,0.02
		c-3.58-0.62-7.16-1.3-10.74-1.93c-0.79-0.14-1.6-0.16-2.4-0.24c-0.41-0.39-0.77-0.89-1.35-1.01c-1.67-0.35-3.02-1.43-4.6-1.95
		c-0.5-0.64-1.23-0.95-1.9-1.35c-0.63-0.54-1.27-1.08-1.9-1.62c-0.32-0.36-0.65-0.73-0.96-1.1c-1.03-1.19-2-2.43-2.83-3.77
		c0.06-0.82-0.64-1.23-0.98-1.83c-0.54-0.94-0.84-1-1.38,0.01c-0.74,1.39-1.4,1.54-2.69,0.7c-1.06-0.7-1.88-0.61-2.58,0.51
		c-0.38,0.6-2.72,1-2.96,0.46c-0.59-1.32-1.92-1.14-2.85-1.74C8.24,40.97,7.32,40.11,6.94,39.04z"/>
	<path class="st7" d="M86.78,61.48c-2.4-1.29-5.06-0.53-7.58-0.94c-0.26-0.04-0.65-0.19-0.77-0.07c-1.9,1.76-4.68,0.87-6.7,2.26
		c-0.26,0.18-0.7,0.09-1.05,0.11c-1.82,0.12-3.64-0.2-5.46,0.47c-1.01,0.37-2.23-0.24-3.37,0.36c-1.11,0.59-2.53,0.28-3.21-0.44
		c-0.28,0.49,0.03,2.19-1.26,0.57c-0.33-0.4-0.58,0.17-0.83,0.38c-0.66-1.27-0.48-2.31,0.62-3.33c1.91-1.76,3.71-3.64,5.56-5.46
		c0.54-0.58,1.07-1.15,1.61-1.73c0.24,0.48-0.09,2.11,1.17,0.59c0.08-0.1,0.35-0.03,0.52-0.05c2.39-0.23,4.84-0.09,7.11-1.1
		c0.63-0.28,1.31-0.26,1.99-0.26c1.75,0.01,3.52,0.13,5.26-0.05c0.92-0.1,1.46,0.15,2.12,0.69c0.87,0.71,1.54,1.7,2.67,2.07
		C86.52,57.29,86.78,59.35,86.78,61.48z"/>
	<path class="st8" d="M53.22,52.83c-0.63,0-1.26-0.01-1.89,0c-0.62,0.01-0.97-0.2-1.1-0.89c-0.19-1.06-1.1-1.43-1.95-0.72
		c-0.85,0.71-1.28,0.54-1.77-0.32c-0.22-0.38-0.65-0.63-0.91-0.99c-0.38-0.53-0.68-0.82-1.2-0.1c-0.33,0.45-0.89,0.69-1.44,0.58
		c-1.41-0.29-2.96-0.24-4.05-1.42c-1.14-1.24-3.06-1.53-3.84-3.25c-0.27-0.59-1-0.64-1.5-0.12c-0.51,0.53-1.12,0.48-1.75,0.49
		c-0.73,0.01-1.05-0.31-1.08-1.05c-0.04-0.8-0.08-1.89-0.89-2.08c-0.94-0.23-2.13-0.58-2.95,0.57c-0.43,0.6-1.17,0.48-1.75,0.31
		c-0.61-0.18-0.59-0.81-0.63-1.36c-0.04-0.65,0.16-1.04,0.89-1.02c0.24,0.01,0.43-0.16,0.39-0.43c-0.04-0.27-0.27-0.33-0.51-0.34
		c-0.5-0.01-0.99-0.02-1.49-0.01c-1.24,0.03-2.2-0.45-2.73-1.58c-0.25-0.53-0.41-0.68-0.8-0.14c-0.84,1.15-3.09,1.64-4.24,0.82
		c-0.59-0.42-1.39-0.69-1.6-1.55c-0.04-0.18-0.33-0.46-0.45-0.43c-1.34,0.27-2.34-0.7-3.54-0.93c-0.86-0.17-1.49-0.17-1.8,0.76
		c-0.52-0.27-0.29-0.67-0.36-0.99c0.09,0,0.18,0,0.27,0c0.66-0.35,0.62-1.04,0.81-1.62c0.04-0.45,0.18-0.93,0.54-1.14
		c0.59-0.35,0.38-0.77,0.28-1.22c0.26-0.55,0.5-1.11,1.06-1.44c0.82-0.12,1.53-0.52,2.42-0.89c0,0.77,0.22,1.49-0.27,2.18
		c-0.19,0.27-0.12,0.64,0.21,0.56c1.46-0.34,2.38,0.85,3.61,1.17c0.93,0.24,1.6,0.07,2.32-0.54c1.08-0.92,1.62-0.69,1.93,0.68
		c0.08,0.35,0.07,0.71,0.08,1.07c0.02,1.03,0.15,1.85,1.58,1.49c1.06-0.27,1.54,0.4,1.67,1.42c0.16,1.31,0.52,1.51,1.76,1.05
		c1.77-0.66,2.27-0.46,2.77,1.27c0.17,0.57,0.35,0.8,0.96,0.85c1.42,0.12,2.83,0.38,4.26,0.5c0.64,0.05,1.14,0.29,1.19,0.87
		c0.12,1.49,1.26,1.46,2.24,1.56c0.75,0.08,1.53,0.16,2.27-0.12c0.32-0.12,0.65-0.12,0.9,0.09c1.4,1.15,3.13,0.89,4.74,1.14
		c0.77,0.12,1.67,0.02,0.94,1.3c-0.32,0.56-0.15,1.1,0.74,1.15c2.23,0.12,4.4,0.79,6.65,0.83c1.32,0.02,0.77,1.15,0.9,1.86
		c-0.01,0.22-0.06,0.42-0.27,0.54C53.57,51.02,53.03,51.56,53.22,52.83z"/>
	<path class="st9" d="M6.94,39.04c0.38,1.07,1.3,1.93,2.53,2.71c0.93,0.59,2.27,0.42,2.85,1.74c0.24,0.54,2.58,0.15,2.96-0.46
		c0.71-1.13,1.52-1.21,2.58-0.51c1.28,0.84,1.95,0.7,2.69-0.7c0.54-1.01,0.83-0.94,1.38-0.01c0.35,0.6,1.04,1.01,0.98,1.83
		c-0.82,0.16-0.71,0.96-0.73,1.41c-0.09,2.03-0.55,3.92-1.7,5.62c-1.11,0.04-2.47-0.36-2.57,1.48c-0.01,0.13-0.32,0.33-0.51,0.36
		c-0.84,0.13-1.68,0.24-2.53,0.3c-0.46,0.03-1.04-0.11-1.08-0.6c-0.13-1.54-1.37-1.34-2.29-1.5c-0.87-0.15-1.8-0.09-2.69-0.03
		c-1.04,0.07-1.77-0.05-1.62-1.39c0.05-0.41-0.1-0.92-0.71-1.32c0.14,0.71,0.23,1.22-0.1,1.71c-0.33,0.49-0.54,1.03-0.57,1.64
		C5.07,47.12,5.48,43.03,6.94,39.04z"/>
	<path class="st3" d="M5.8,51.31c0.03-0.6,0.24-1.15,0.57-1.64c0.33-0.49,0.24-1,0.1-1.71c0.61,0.41,0.76,0.91,0.71,1.32
		c-0.15,1.34,0.58,1.46,1.62,1.39c0.9-0.06,1.82-0.13,2.69,0.03c0.92,0.16,2.17-0.03,2.29,1.5c0.04,0.49,0.63,0.63,1.08,0.6
		c0.85-0.06,1.69-0.17,2.53-0.3c0.19-0.03,0.5-0.23,0.51-0.36c0.1-1.84,1.46-1.44,2.57-1.48c1.03,1.64,0.75,3.38-0.73,4.66
		c-0.56,0.48-1.04,1-0.89,1.83c-0.01,0.09-0.01,0.19-0.04,0.26c-1.07,2.07-2.19,4.12-2.95,6.33c-0.22,0.62-0.64,0.45-0.94,0.19
		c-0.54-0.45-0.96-0.74-1.49,0.04c-0.24,0.36-0.76,0.16-1.14,0.28c0.09-1.15-0.49-1.66-1.6-1.65c0,0,0.02,0,0.02,0
		c-0.09-0.1-0.18-0.2-0.27-0.3c0,0,0.01,0.01,0.01,0.01c-0.08-0.1-0.17-0.2-0.25-0.29l-0.05-0.05c0,0,0.03-0.07,0.03-0.07
		c-0.1-0.14-0.19-0.27-0.29-0.41c0,0,0,0.03,0,0.03c0.18-0.7-0.31-0.93-0.81-1.15c0,0,0-0.09,0-0.09c-0.18-0.55,0.15-1.41-0.88-1.42
		c0,0,0.03-0.03,0.03-0.03c0.07-0.27,0.04-0.49-0.28-0.56c0,0,0.02,0.01,0.02,0.01c-0.22-1.97-1.07-3.71-1.96-5.44
		C5.73,52.37,5.84,51.83,5.8,51.31z"/>
	<path class="st0" d="M86.78,61.48c0-2.13-0.26-4.18-1.62-5.94c-0.57-1.88-1.62-3.47-2.99-4.86c1.55-0.34,2.86,0.52,4.19,0.99
		c0.7,0.25,0.6,1.39,0.7,2.18c0.06,0.51,0.4,0.88,0.72,0.3c0.69-1.24,1.62-0.53,2.49-0.49c0.23,0.01,0.46,0.07,0.5,0.34
		c0.04,0.27-0.15,0.4-0.39,0.44c-0.27,0.05-0.58,0.1-0.54,0.46c0.04,0.34,0.37,0.41,0.63,0.35c1.94-0.47,3.58,0.93,5.47,0.84
		c0.61-0.03,0.99,0.36,1.12,0.96c0.08,0.38,0.06,0.8,0.58,1.02c0.68-1.42,0.83-2.9,0.78-4.43c0.31-0.2,0.26-0.51,0.27-0.81
		c0.72-0.09,0.49-0.66,0.54-1.08c0.57-2.3-0.01-4.68,0.46-6.99c1,7.16-0.87,13.6-4.87,19.51c-0.21,0.32-0.6,0.52-0.91,0.77
		c-0.6-0.25-1.29,1.22-1.87-0.1c-0.08-0.18-0.31,0-0.35,0.2c-0.07,0.38-0.19,0.73-0.67,0.64c-0.54-0.1-0.69-0.56-0.69-1.01
		c0-0.84-0.47-1.44-1.15-1.63c-0.95-0.26-1.67-0.79-2.39-1.38C86.78,61.66,86.78,61.57,86.78,61.48z"/>
	<path class="st10" d="M33.16,69.85c-3.49,0.98-6.99,1.1-10.52,0.24c0.17-0.75,0.59-0.31,0.9-0.17c0.83,0.36,1.28,0.34,1.68-0.7
		c0.45-1.18-0.08-2.53,0.87-3.62c0.64-0.74,0.78-1.78,0.88-2.76c0.42-0.41,0.28-1.09,0.8-1.5c1.47-1.17,1.5-3.62,3.67-4.2
		c0.06-0.02,0.08-0.15,0.12-0.23c0.51-0.47,1.02,0.21,1.53-0.01c-0.29,0.36-0.08,0.54,0.23,0.7c0.95,0.49,1.89,0.99,2.84,1.48
		c-0.16,0.28-0.77,0.49-0.42,0.85c0.87,0.92,0.16,1.43-0.41,2c-0.42,0.41-0.74,0.89-0.35,1.42c0.6,0.81,0.26,1.43-0.11,2.21
		c-0.47,0.98-1.69,1.89-0.57,3.16c-0.83,0.4-1.11-1.55-2.06-0.37C32.58,68.82,33.84,68.77,33.16,69.85z"/>
	<path class="st10" d="M59.16,85.27c0,0.81,0.01,1.62,0.01,2.44c-0.18,0.81-0.36,1.62-0.54,2.43c-1.29,0.19-1.69-0.47-1.62-1.64
		c0.03-0.49,0.03-0.99-0.01-1.48c-0.06-0.76-0.33-1.51-1.11-1.67c-0.71-0.14-0.77-0.63-0.99-1.1c-0.7-1.47-1.13-3.16-3.12-3.51
		c-0.5-0.09-0.81-0.55-1.15-0.91c-0.5-0.54-1.09-1.19-1.73-1.21c-1.15-0.04-1.8-0.85-2.51-1.41c-0.59-0.47-1.1-0.81-1.83-0.86
		c-0.01-0.2-0.03-0.39-0.04-0.59c0,0-0.02,0-0.02,0c0.11,0.02,0.22,0.03,0.32,0.05c0.2-0.08,0.2-0.17,0.02-0.27
		c-0.02-0.11-0.04-0.22-0.06-0.32c0,0-0.02,0.03-0.02,0.03c0.69-0.47,1.23-1.01,1.08-1.94c0,0-0.02,0.03-0.02,0.03
		c0.69-0.11,1.05-0.52,1.31-1.18c0.21-0.53,0.56-1.25,1.28-0.29c0.24,0.32,0.76,0.61,1.21,0.3c1.02-0.7,0.87,0.09,0.89,0.66
		c0.01,0.44,0.14,1.01,0.62,0.76c1.33-0.7,1.27,0.43,1.66,1.07c0.8,1.32,0.84,3.03,2.08,4.12c0.48,0.27,0.24,1.2,1.06,1.16
		c0.25,1.25-0.09,2.72,1.35,3.53c0.13,0.07,0.23,0.32,0.21,0.48C57.36,85.27,58.16,85.39,59.16,85.27z"/>
	<path class="st11" d="M12.28,64.26c0.38-0.13,0.9,0.07,1.14-0.28c0.52-0.78,0.94-0.49,1.49-0.04c0.3,0.25,0.73,0.43,0.94-0.19
		c0.77-2.21,1.88-4.26,2.95-6.33c0.04-0.08,0.03-0.18,0.04-0.26c1.12-0.13,2.42,0.46,3.32-0.42c0.8-0.78,1.49-0.79,2.36-0.39
		c0.08,0.56-0.2,0.95-0.6,1.28c-0.8,0.65-1.18,1.28-0.63,2.41c0.28,0.58,0.73,1.44,0.05,2.25c-1.16,1.4-1.83,3.01-1.8,4.88
		c0.01,0.41,0.17,1-0.51,1.05c-0.68,0.05-1.09,0.56-1.64,0.81C16.69,67.93,14.23,66.48,12.28,64.26z"/>
	<path class="st12" d="M64.32,53.65c-0.54,0.58-1.07,1.15-1.61,1.73c0.21-1.22,1.15-2.01,1.81-2.95c0.81-1.16,1.11-2.45,1.29-3.78
		c0.17-1.29-0.69-1.57-1.75-1.54c0-0.16,0.01-0.32,0.01-0.47c0.4-0.06,0.8-0.1,1.19-0.19c6.12-1.38,11.65-0.38,16.39,3.95
		c-0.16,0.21-0.36,0.16-0.6,0.14c-1.34-0.08-2.75-0.77-3.97-0.3c-2.62,1-5.45-0.13-8.08,1.16C67.46,52.15,65.63,52.34,64.32,53.65z"
		/>
	<path class="st12" d="M33.16,69.85c0.68-1.08-0.58-1.03-0.93-1.52c0.96-1.18,1.24,0.77,2.06,0.37c-1.12-1.27,0.1-2.18,0.57-3.16
		c0.37-0.78,0.72-1.39,0.11-2.21c-0.39-0.53-0.07-1.01,0.35-1.42c0.58-0.56,1.28-1.07,0.41-2c-0.34-0.36,0.26-0.57,0.42-0.85
		c2.99,0.66,5.65,2.18,8.47,3.27c0.61,0.23,0.07,0.59-0.13,0.78C41.25,66.23,37.73,68.93,33.16,69.85z"/>
	<path class="st13" d="M19.4,69.02c0.55-0.26,0.96-0.76,1.64-0.81c0.67-0.05,0.52-0.64,0.51-1.05c-0.03-1.86,0.64-3.48,1.8-4.88
		c0.68-0.81,0.23-1.67-0.05-2.25c-0.55-1.13-0.17-1.76,0.63-2.41c0.4-0.32,0.68-0.72,0.6-1.28c0.65-0.06,1.13-0.49,1.24-1.03
		c0.17-0.8,0.08-1.66,0.11-2.49c0.37,0.01,0.82,0.01,0.79,0.49c-0.12,1.89,2.01,3.4,0.93,5.45c-0.04,0.08,0.06,0.26,0.14,0.35
		c0.56,0.7,0.21,1.19-0.28,1.75c-0.49,0.54-1.15,1.1-0.49,1.96c-0.1,0.98-0.24,2.03-0.88,2.76c-0.95,1.09-0.42,2.44-0.87,3.62
		c-0.39,1.04-0.85,1.06-1.68,0.7c-0.31-0.14-0.74-0.58-0.9,0.17C21.45,70.07,20.44,69.48,19.4,69.02z"/>
	<path class="st6" d="M86.78,61.75c0.72,0.59,1.45,1.12,2.39,1.38c0.68,0.19,1.15,0.79,1.15,1.63c0,0.45,0.16,0.91,0.69,1.01
		c0.47,0.09,0.6-0.25,0.67-0.64c0.04-0.19,0.27-0.37,0.35-0.2c0.58,1.32,1.27-0.16,1.87,0.1c-1.05,2.09-2.9,3.48-4.49,5.09
		c-1.06,1.07-1.96,2.37-3.4,3.02c-0.4,0.18-0.13,0.72-0.56,0.84c-0.01-0.29-0.02-0.58-0.03-0.87c-0.09-0.18-0.18-0.36-0.27-0.54
		c0.4-2.34,0.29-4.75,1.45-6.97C87.19,64.47,86.71,63.04,86.78,61.75z"/>
	<path class="st12" d="M33.1,56.89c-0.51,0.22-1.02-0.46-1.53,0.01c-0.37-0.16-0.6-0.58-1.07-0.56c-0.27-0.77-0.31-1.57-0.27-2.38
		c0.03-0.84,1.02-1.57,0.28-2.49c1.59,0.53,2.94,1.6,4.6,1.95c0.59,0.12,0.94,0.62,1.35,1.01C35.34,55.25,34.22,56.07,33.1,56.89z"
		/>
	<path class="st12" d="M59.16,85.27c-1.01,0.12-1.8,0-1.66-1.33c0.02-0.15-0.09-0.4-0.21-0.48c-1.44-0.81-1.1-2.28-1.35-3.53
		c1.03-1.25,1.98-2.55,2.48-4.12c0.68,1.23,0.64,2.6,0.72,3.92C59.24,81.57,59.16,83.42,59.16,85.27z"/>
	<path class="st12" d="M54.88,78.78c-1.24-1.1-1.28-2.8-2.08-4.12c-0.39-0.64-0.33-1.77-1.66-1.07c-0.49,0.26-0.61-0.32-0.62-0.76
		c-0.02-0.58,0.13-1.36-0.89-0.66c-0.45,0.31-0.97,0.02-1.21-0.3c-0.72-0.96-1.07-0.24-1.28,0.29c-0.26,0.66-0.62,1.07-1.31,1.18
		c0.96-2.02,2.53-3.55,4.06-5.11c0.29-0.3,0.51-0.42,0.74,0.16C52.01,71.85,53.64,75.23,54.88,78.78z"/>
	<path class="st14" d="M57.82,24.67c-0.08,0.56-0.3,0.88-0.88,1.18c-0.85,0.44-1.81,0.93-1.58,2.29c0.17,1.01-1.14,1.22-1.5,2.07
		c-0.14,0.32-0.57-0.28-0.64-0.69c-0.06-0.39-0.23-0.72-0.67-0.7c-0.44,0.02-0.39,0.42-0.41,0.72c-0.03,0.33-0.1,0.66-0.47,0.72
		c-0.4,0.06-0.56-0.26-0.59-0.59c-0.07-0.75-0.62-0.62-1.1-0.64c0,0,0,0,0,0c0.03-0.41-0.06-0.78-0.39-1.06
		c-0.56-0.5-0.49-1.06-0.15-1.65c0.33,0.09,0.65,0.18,0.98,0.27c0.14,0.1,0.27,0.24,0.43,0.31c0.75,0.34,1.07,1.58,1.96,1.32
		c0.74-0.21,1.3-1.01,1.94-1.55C55.7,25.9,56.6,25.05,57.82,24.67z"/>
	<path class="st8" d="M32.65,20.95c-2.28-0.18-4.49,0.3-6.69,0.82c-0.46,0.11-0.85,0.11-1.28,0.01c3.83-1.26,7.72-1.7,11.72-1.03
		c-0.31,0.27-0.69,0.14-1.04,0.19c-0.36,0-0.73,0-1.09,0.01C33.73,20.95,33.19,20.95,32.65,20.95z"/>
	<path class="st8" d="M37.52,20.92c3.12,0.32,6.02,1.33,8.71,2.94c0,0-0.05,0.06-0.05,0.06c-0.45-0.01-0.89-0.01-1.34-0.02l0,0
		c-0.01-0.44-0.35-0.58-0.68-0.73c-2.12-0.96-4.33-1.6-6.62-1.98C37.52,21.1,37.52,21.01,37.52,20.92z"/>
	<path class="st1" d="M82.5,22.53c-2.18-0.57-4.45-0.79-6.54-1.7C78.28,20.85,80.43,21.53,82.5,22.53z"/>
	<path class="st3" d="M85.42,73.11c0.01,0.29,0.02,0.58,0.03,0.87c-1.17,0.7-1.79,2-2.95,2.7c0,0-0.06-0.07-0.06-0.07
		c0.06-0.51-0.19-1.26,0.34-1.46C83.9,74.73,84.45,73.66,85.42,73.11z"/>
	<path class="st11" d="M6.01,52.85c0.89,1.73,1.74,3.47,1.96,5.44C6.76,56.67,6.41,54.75,6.01,52.85z"/>
	<path class="st6" d="M54.85,51.21c0.21-0.12,0.26-0.32,0.27-0.54c0.65,0.81,1.34-0.22,2,0.04c-0.55,0.87-1.48,1.28-2.26,1.87
		l-0.04-0.03C54.83,52.1,54.84,51.66,54.85,51.21z"/>
	<path class="st13" d="M42.23,83.96c0.38,1.42,0.08,2.86,0.16,4.29c-0.07,0-0.13,0-0.2,0.01C41.95,86.82,41.98,85.39,42.23,83.96z"
		/>
	<path class="st3" d="M42.19,88.26c0.07-0.01,0.13-0.01,0.2-0.01c-0.02,1.18,0.95,2.25,0.35,3.49
		C42.35,90.61,42.13,89.45,42.19,88.26z"/>
	<path class="st9" d="M10.2,32.63c0.1,0.45,0.31,0.87-0.28,1.22c-0.36,0.21-0.5,0.69-0.54,1.14c-0.26,0.1-0.44,0.28-0.54,0.54
		c-0.09,0-0.17,0.01-0.25,0.01l-0.07-0.07C8.87,34.41,9.43,33.45,10.2,32.63z"/>
	<path class="st11" d="M10.68,62.61c1.11-0.01,1.69,0.5,1.6,1.65C11.53,63.92,11.08,63.29,10.68,62.61z"/>
	<path class="st8" d="M50.41,26.6c-0.33-0.09-0.65-0.18-0.98-0.27c-0.27-0.46-1.05-0.39-1.1-1.07l0.07-0.06
		C49.21,25.48,49.86,25.96,50.41,26.6z"/>
	<path class="st12" d="M45.84,73.3c0.15,0.93-0.39,1.47-1.08,1.94C44.93,74.49,45.3,73.85,45.84,73.3z"/>
	<path class="st1" d="M84.75,23.59c-0.81-0.08-1.59-0.22-2.02-1.03C83.49,22.74,84.2,23,84.75,23.59z"/>
	<path class="st1" d="M86.83,24.69c-0.88,0.05-1.44-0.47-1.95-1.08C85.67,23.71,86.28,24.15,86.83,24.69z"/>
	<path class="st9" d="M8,36.58c-0.06,0.72,0.19,1.57-0.82,1.88C7.27,37.75,7.58,37.14,8,36.58z"/>
	<path class="st13" d="M68.11,90.42c0.45-0.19,0.84-0.54,1.37-0.53c-0.33,0.58-0.76,1.05-1.35,1.37
		C68.12,90.98,68.12,90.7,68.11,90.42z"/>
	<path class="st8" d="M24.56,21.85c-0.42,0.63-1.06,0.68-1.73,0.67C23.3,22.02,23.92,21.91,24.56,21.85z"/>
	<path class="st14" d="M37.52,20.92c0,0.09,0,0.18,0.01,0.27c-0.72-0.1-1.49,0.26-2.16-0.25c0.35-0.04,0.73,0.09,1.04-0.19
		C36.77,20.81,37.15,20.86,37.52,20.92z"/>
	<path class="st11" d="M8.19,58.87c1.03,0.02,0.71,0.88,0.88,1.42C8.59,59.94,8.28,59.47,8.19,58.87z"/>
	<path class="st5" d="M57.77,70.69c0.37,0.58,0.76,1.15,0.32,1.87C57.78,71.98,57.75,71.34,57.77,70.69z"/>
	<path class="st13" d="M42.64,81.4c-0.1,0.57,0.34,1.23-0.31,1.7C42.26,82.5,42.34,81.93,42.64,81.4z"/>
	<path class="st8" d="M47.07,24.38c0.49,0.21,1.06,0.27,1.33,0.83c0,0-0.07,0.06-0.07,0.06c-0.56-0.09-0.94-0.48-1.35-0.81
		L47.07,24.38z"/>
	<path class="st11" d="M9.07,60.38c0.5,0.22,0.99,0.45,0.81,1.15C9.37,61.32,9.19,60.87,9.07,60.38z"/>
	<path class="st12" d="M58.2,73.4c0.69,0.3,0.42,0.8,0.27,1.28C58.38,74.25,58.29,73.83,58.2,73.4z"/>
	<path class="st10" d="M43.75,78.51c-0.35,0.18-0.2,0.83-0.76,0.81c0.19-0.56,0.21-1.19,0.7-1.62c0,0,0,0.01,0,0.01
		C43.71,77.98,43.73,78.25,43.75,78.51z"/>
	<path class="st9" d="M8.56,36.61c-0.09,0-0.18,0-0.27,0c-0.1-0.01-0.21-0.02-0.31-0.03c0.06-0.42,0.19-0.81,0.52-1.1
		c0,0,0.07,0.07,0.07,0.07c-0.01,0.08-0.01,0.17-0.01,0.25C8.57,36.07,8.57,36.34,8.56,36.61z"/>
	<path class="st12" d="M44.52,75.76c0.01,0.2,0.03,0.39,0.04,0.59c-0.18,0.18-0.36,0.36-0.54,0.55l-0.04-0.04
		C44.08,76.46,44.15,76.04,44.52,75.76z"/>
	<path class="st8" d="M46.23,23.85c0.35,0.06,0.66,0.19,0.84,0.52c0,0-0.08,0.08-0.08,0.08c-0.38-0.02-0.65-0.2-0.81-0.54
		L46.23,23.85z"/>
	<path class="st12" d="M43.69,77.71C43.69,77.71,43.68,77.71,43.69,77.71c0.03-0.31-0.03-0.65,0.29-0.85c0,0,0.04,0.04,0.04,0.04
		C44.01,77.21,44.06,77.55,43.69,77.71z"/>
	<path class="st13" d="M69.76,89.64c-0.03-0.42,0.19-0.57,0.58-0.56C70.23,89.35,70.09,89.59,69.76,89.64z"/>
	<path class="st11" d="M7.94,58.28c0.32,0.08,0.35,0.3,0.28,0.56C7.94,58.74,7.9,58.53,7.94,58.28z"/>
	<path class="st12" d="M44.82,75.81c-0.11-0.02-0.22-0.03-0.32-0.05c0.01-0.23,0.05-0.44,0.28-0.55c0.02,0.11,0.04,0.22,0.06,0.32
		C44.83,75.63,44.82,75.72,44.82,75.81z"/>
	<path class="st3" d="M42.92,92.32c0.12,0.03,0.24,0.06,0.36,0.1c-0.11,0.05-0.21,0.1-0.32,0.15
		C42.91,92.49,42.89,92.41,42.92,92.32z"/>
	<path class="st1" d="M98.15,38.5c-0.1-0.09-0.19-0.18-0.29-0.26l0.02-0.02c0.06,0,0.13,0.01,0.19,0.01
		C98.1,38.32,98.13,38.41,98.15,38.5z"/>
	<path class="st14" d="M58.62,24.15c-0.12,0.09-0.23,0.17-0.35,0.26C58.39,24.33,58.51,24.24,58.62,24.15z"/>
	<path class="st11" d="M10.43,62.31c0.09,0.1,0.18,0.2,0.27,0.3C10.62,62.51,10.52,62.41,10.43,62.31z"/>
	<path class="st11" d="M10.19,62.02c0.08,0.1,0.17,0.2,0.25,0.29C10.36,62.22,10.28,62.12,10.19,62.02z"/>
	<path class="st11" d="M9.88,61.5c0.1,0.14,0.19,0.27,0.29,0.41C10.07,61.77,9.98,61.63,9.88,61.5z"/>
	<path class="st13" d="M70.82,88.55c0.12-0.09,0.24-0.19,0.36-0.28C71.06,88.36,70.94,88.46,70.82,88.55z"/>
	<path class="st13" d="M70.56,88.87c0.09-0.11,0.19-0.23,0.28-0.34C70.75,88.64,70.65,88.76,70.56,88.87z"/>
	<path class="st13" d="M69.47,89.89c0.1-0.09,0.19-0.19,0.29-0.28C69.66,89.71,69.56,89.8,69.47,89.89z"/>
	<path class="st6" d="M54.86,52.58c-0.08,0.1-0.17,0.19-0.25,0.29c0,0-0.05-0.05-0.05-0.05c0.09-0.09,0.18-0.18,0.26-0.27
		L54.86,52.58z"/>
	<path class="st13" d="M67.86,91.58c0.09-0.12,0.19-0.23,0.28-0.35C68.04,91.35,67.95,91.46,67.86,91.58z"/>
	<path class="st13" d="M67.31,92.1c0.12-0.1,0.24-0.21,0.36-0.31C67.55,91.89,67.43,92,67.31,92.1z"/>
	<path class="st14" d="M81.65,50.39c-4.73-4.33-10.27-5.33-16.39-3.95c-0.39,0.09-0.79,0.13-1.19,0.19c-0.3-1.18-0.65-2.3-2.17-2.36
		c-0.1,0-0.24-0.15-0.29-0.26c-0.96-2.08-2.83-2.26-4.77-2.26c-1.01,0-1.96,0.03-2.4-1.22c-0.22-0.61-0.92-0.5-1.42-0.25
		c-1.03,0.51-1.97,0.93-2.31-0.73c-0.04-0.17-0.32-0.45-0.46-0.43c-1.45,0.21-2.52-1.08-4-0.94c-1.03,0.1-2.03-0.33-2.36-1.55
		c-0.14-0.51-0.54-0.8-1.02-1.01c-0.25-0.11-0.59-0.19-0.7-0.38c-1.26-2.18-3.75-1.17-5.48-2.11c-0.21-0.11-0.65,0.02-0.89,0.18
		c-1.59,1.02-2.79-0.4-4.17-0.65c-0.07-0.01-0.18-0.12-0.18-0.19c-0.03-1.8-1.18-2.2-2.69-2.2c-0.15,0-0.32-0.29-0.45-0.46
		c-0.43-0.59-0.78-0.65-1.21,0.03c-0.63,1-1.46,1.16-2.35,0.35c-0.64-0.58-1.46-0.56-2.3-0.74c1.61-2.5,3.25-4.81,5.73-6.37
		c0.56-0.35,1.1-0.59,1.76-0.53c0.77,0,1.53,0.02,2.3,0c0.57-0.01,0.99,0.11,0.95,0.8c-0.05,0.94,0.5,1.17,1.29,1.09
		c1.63-0.16,3.23,0.2,4.83,0.34c0.91,0.08,2.3-0.26,2.62,1.28c0.04,0.18,0.28,0.21,0.46,0.13c0.78-0.35,1.2,0.3,1.36,0.75
		c0.32,0.94,1.2,1,1.74,1.47c1.47,1.29,2.84,1.44,4.48,0.62c0,0,0,0,0,0c0.01,1.73,0.52,2.07,2.26,2.03
		c1.32-0.03,2.97-0.16,3.89,0.53c1.01,0.75,2.15,1.65,2.88,2.58c0.63,0.81,1.05,1.13,1.91,1.07c1.95-0.14,3.61,0.54,5.05,1.79
		c0.38,0.33,0.79,0.35,1.25,0.39c2.05,0.16,4.1,0.36,6.15,0.54c0.09,0.01,0.25,0,0.26,0.03c0.5,1.57,2.57,1.57,3.09,3.04
		c0.22,0.63,0.53,0.75,1.07,0.71c2.17-0.15,4.23,0.84,6.42,0.56c0.89-0.11,1,0.58,0.96,1.27c-0.07,1.05,0.23,1.67,1.44,1.79
		c0.67,0.07,1.36,0.26,2,0.14c1.71-0.32,3.11,0.64,4.65,0.98c0.2,0.04,0.49,0.23,0.52,0.39c0.36,1.93,2,1.41,3.17,1.59
		c1.48,0.22,1.68,0.31,1.45,1.79c-0.04,0.26-0.17,0.52-0.21,0.78c-0.04,0.35-0.18,0.79,0.11,1.02c0.35,0.27,0.55-0.4,0.93-0.31
		c-0.05,0.43,0.18,0.99-0.54,1.08c-0.7,0.07-0.42,0.46-0.27,0.81c0.04,1.52-0.1,3.01-0.78,4.43c-0.53-0.22-0.5-0.64-0.58-1.02
		c-0.13-0.6-0.51-0.99-1.12-0.96c-1.88,0.09-3.53-1.31-5.47-0.84c-0.26,0.06-0.58-0.01-0.63-0.35c-0.04-0.36,0.26-0.41,0.54-0.46
		c0.24-0.05,0.43-0.17,0.39-0.44c-0.04-0.27-0.27-0.33-0.5-0.34c-0.86-0.04-1.8-0.75-2.49,0.49c-0.32,0.58-0.66,0.21-0.72-0.3
		c-0.09-0.79,0-1.92-0.7-2.18c-1.33-0.48-2.64-1.33-4.19-0.99C82,50.58,81.82,50.49,81.65,50.39z"/>
	<path class="st1" d="M49.97,29.04c-1.64,0.81-3.01,0.67-4.48-0.62c-0.54-0.48-1.42-0.54-1.74-1.47c-0.15-0.45-0.57-1.1-1.36-0.75
		c-0.18,0.08-0.42,0.06-0.46-0.13c-0.31-1.55-1.7-1.2-2.62-1.28c-1.6-0.14-3.2-0.5-4.83-0.34c-0.79,0.08-1.35-0.16-1.29-1.09
		c0.04-0.69-0.38-0.81-0.95-0.8c-0.77,0.02-1.53,0-2.3,0c0-0.09,0-0.18,0-0.27c0.37-0.04,0.8,0.12,1.08-0.27
		c0.2-0.31,0.51-0.26,0.81-0.27c0.43,0.36,1.02,0.49,1.25-0.03c0.27-0.59,0.89-0.37,1.18-0.77c0.36,0,0.73,0,1.09-0.01
		c0.67,0.52,1.44,0.15,2.16,0.25c2.29,0.38,4.5,1.02,6.62,1.98c0.33,0.15,0.67,0.29,0.68,0.73c-0.02,0.04-0.04,0.07-0.06,0.11
		c0.02-0.04,0.04-0.07,0.06-0.11c0.45,0.01,0.89,0.01,1.34,0.02c0.17,0.34,0.44,0.52,0.81,0.54c0.41,0.33,0.79,0.72,1.35,0.81
		c0.05,0.68,0.83,0.61,1.1,1.07c-0.33,0.58-0.41,1.15,0.15,1.65C49.91,28.26,50,28.63,49.97,29.04z M46.18,25.79
		c0.03,0.29-0.07,0.66,0.35,0.75c0.18,0.04,0.38-0.06,0.35-0.28C46.82,25.9,46.51,25.82,46.18,25.79c0.02-0.51-0.11-0.88-0.74-0.77
		c-0.23,0.04-0.49,0.19-0.47,0.39c0.08,0.62,0.61,0.29,0.95,0.38C46,25.81,46.1,25.79,46.18,25.79z M34.19,22.03
		c1.13,0.29,2.26,0.87,3.42,0.17C36.47,22.18,35.37,21.44,34.19,22.03z M43.39,24.15c-0.04-0.24-0.18-0.42-0.42-0.4
		c-0.3,0.02-0.28,0.29-0.27,0.5c0.01,0.18,0.09,0.37,0.3,0.35C43.23,24.57,43.38,24.41,43.39,24.15z M39.52,22.42
		c-0.06-0.01-0.13-0.01-0.19-0.02c0.03,0.02,0.06,0.07,0.09,0.07C39.45,22.48,39.48,22.44,39.52,22.42z"/>
	<path class="st14" d="M34.27,20.94c-0.28,0.4-0.91,0.18-1.18,0.77c-0.24,0.52-0.82,0.39-1.25,0.03c0.18-0.35,0.84-0.21,0.81-0.78
		C33.19,20.95,33.73,20.95,34.27,20.94z"/>
	<path class="st14" d="M31.03,22.01c-0.29,0.39-0.71,0.23-1.08,0.27C30.23,21.89,30.65,22.04,31.03,22.01z"/>
	<path class="st13" d="M43.69,77.71c0.37-0.16,0.32-0.5,0.34-0.81c0.18-0.18,0.36-0.36,0.54-0.55c0.73,0.05,1.23,0.39,1.83,0.86
		c0.71,0.56,1.36,1.37,2.51,1.41c0.64,0.02,1.23,0.68,1.73,1.21c0.33,0.36,0.65,0.82,1.15,0.91c1.99,0.35,2.43,2.04,3.12,3.51
		c0.22,0.47,0.28,0.96,0.99,1.1c0.79,0.16,1.06,0.91,1.11,1.67c0.04,0.49,0.04,0.99,0.01,1.48c-0.07,1.17,0.33,1.83,1.62,1.64
		c0.07,1.18-0.24,2.31-0.55,3.43c-0.08,0.27-0.2,0.52-0.53,0.52c-0.32,0-0.53-0.26-0.5-0.53c0.16-1.17-0.93-1.66-1.29-2.48
		c-0.63-1.44-1.7-2.48-2.56-3.72c-0.59-0.84-0.99-1.81-1.96-2.33c-0.28-0.15-0.41-0.45-0.47-0.78c-0.05-0.25-0.15-0.67-0.3-0.71
		c-2.33-0.55-3.31-3.42-5.98-3.44c-1.01-0.01-0.69-0.96-0.75-1.58C43.73,78.25,43.71,77.98,43.69,77.71z"/>
	<path class="st13" d="M57.51,95.68c-0.05,0.07-0.09,0.22-0.18,0.26c-0.16,0.07-0.26-0.07-0.25-0.21c0.01-0.11,0.08-0.27,0.16-0.31
		C57.39,95.35,57.46,95.49,57.51,95.68z"/>
	<path class="st9" d="M85.42,73.11c-0.98,0.55-1.52,1.62-2.64,2.04c-0.53,0.2-0.29,0.95-0.34,1.46c-0.82,0.25-1.68,0.17-2.52,0.5
		c-0.72,0.28-1.28-0.44-1.52-1.06c-0.56-1.5-1.86-1.66-3.13-1.84c-0.8-0.11-1.63-0.09-2.43,0c-1.33,0.14-2.22-0.47-3.32-1.16
		c-1.15-0.72-2.41-1.57-3.85-1.83c0.18-1.45,1.16-2.28,2.31-2.97c1.08-0.65,1.94-0.16,2.02,1.1c0.01,0.22,0,0.45,0,0.68
		c0.02,1.39,0.41,1.72,1.87,1.4c0.72-0.16,1.65-0.51,2.08-0.1c1.19,1.13,2.55,0.55,3.83,0.7c0.62,0.07,1.19,0.04,1.17-0.85
		c-0.01-0.47,0.3-0.74,0.79-0.74c0.57,0,0.81,0.34,0.81,0.86c-0.01,0.89,0.61,1.13,1.31,1.26c0.79,0.14,0.85-0.39,0.91-0.98
		c0.02-0.18,0.21-0.42,0.38-0.49c0.3-0.12,0.51,0.12,0.62,0.37c0.27,0.61,0.66,1.07,1.38,1.12C85.24,72.75,85.33,72.93,85.42,73.11z
		"/>
	<path class="st1" d="M97.87,38.24c-0.03-0.02-0.07-0.05-0.1-0.07c0.04,0.02,0.08,0.03,0.12,0.05
		C97.89,38.22,97.87,38.24,97.87,38.24z"/>
	<path class="st5" d="M25.88,52.83c-0.02,0.83,0.06,1.68-0.11,2.49c-0.11,0.53-0.59,0.97-1.24,1.03c-0.87-0.4-1.57-0.39-2.36,0.39
		c-0.9,0.88-2.2,0.29-3.32,0.42c-0.15-0.83,0.33-1.35,0.89-1.83c1.49-1.28,1.76-3.02,0.73-4.66c1.15-1.7,1.61-3.58,1.7-5.62
		c0.02-0.45-0.09-1.25,0.73-1.41c0.83,1.34,1.8,2.58,2.83,3.77c0.32,0.37,0.64,0.73,0.96,1.1c-0.47-0.01-0.95,0.04-1.04,0.6
		c-0.15,0.91-0.22,1.83-0.31,2.75C25.31,52.29,25.47,52.64,25.88,52.83z"/>
	<path class="st7" d="M25.88,52.83c-0.42-0.2-0.58-0.54-0.53-0.98c0.09-0.92,0.17-1.84,0.31-2.75c0.09-0.56,0.57-0.6,1.04-0.6
		c0.63,0.54,1.27,1.08,1.9,1.62c-1.44,1.71-0.42,5.08,1.89,6.22c0.47-0.03,0.7,0.4,1.07,0.56c-0.04,0.08-0.06,0.22-0.12,0.23
		c-2.17,0.58-2.2,3.03-3.67,4.2c-0.52,0.41-0.38,1.09-0.8,1.5c-0.65-0.85,0.01-1.42,0.49-1.96c0.5-0.55,0.85-1.05,0.28-1.75
		c-0.08-0.1-0.18-0.28-0.14-0.35c1.08-2.05-1.05-3.56-0.93-5.45C26.7,52.84,26.25,52.84,25.88,52.83z"/>
	<path class="st10" d="M30.49,56.34c-2.31-1.14-3.34-4.51-1.89-6.22c0.67,0.4,1.4,0.71,1.9,1.35c0.74,0.92-0.25,1.65-0.28,2.49
		C30.19,54.77,30.22,55.56,30.49,56.34z"/>
	<path class="st0" d="M54.83,52.55c-0.09,0.09-0.18,0.18-0.26,0.27c-0.45-0.16-0.89,0.49-1.34,0.02c-0.19-1.27,0.35-1.81,1.62-1.62
		C54.84,51.66,54.83,52.1,54.83,52.55z"/>
	<path class="st10" d="M81.65,50.39c0.17,0.09,0.35,0.19,0.52,0.28c1.36,1.4,2.42,2.98,2.99,4.86c-1.13-0.38-1.8-1.36-2.67-2.07
		c-0.66-0.54-1.19-0.79-2.12-0.69c-1.73,0.18-3.5,0.06-5.26,0.05c-0.68,0-1.36-0.02-1.99,0.26c-2.27,1.01-4.72,0.86-7.11,1.1
		c-0.18,0.02-0.45-0.05-0.52,0.05c-1.27,1.53-0.93-0.1-1.17-0.59c1.31-1.31,3.14-1.5,4.68-2.26c2.64-1.29,5.46-0.16,8.08-1.16
		c1.22-0.46,2.64,0.22,3.97,0.3C81.29,50.55,81.49,50.6,81.65,50.39z"/>
	<path class="st6" d="M8.56,36.61c0-0.27,0-0.54,0-0.81c0.09-0.09,0.18-0.18,0.27-0.27c0.1-0.26,0.28-0.44,0.54-0.54
		C9.19,35.57,9.22,36.26,8.56,36.61z"/>
	<path class="st1" d="M98.42,53.64c-0.15-0.35-0.43-0.74,0.27-0.81C98.68,53.13,98.73,53.45,98.42,53.64z"/>
	<path class="st13" d="M44.82,75.81c0.01-0.09,0.01-0.18,0.02-0.27C45.02,75.64,45.02,75.73,44.82,75.81z"/>
	<path class="st8" d="M8.84,35.53c-0.09,0.09-0.18,0.18-0.27,0.27c0-0.08,0-0.17,0.01-0.25C8.67,35.53,8.75,35.53,8.84,35.53z"/>
	<path class="st14" d="M34.19,22.03c1.18-0.59,2.28,0.15,3.42,0.17C36.45,22.9,35.32,22.32,34.19,22.03z"/>
	<path class="st14" d="M46.18,25.79c-0.09,0-0.18,0.02-0.26,0c-0.34-0.09-0.87,0.24-0.95-0.38c-0.03-0.21,0.23-0.35,0.47-0.39
		C46.07,24.91,46.2,25.28,46.18,25.79L46.18,25.79z"/>
	<path class="st14" d="M43.39,24.15c-0.01,0.26-0.16,0.41-0.39,0.44c-0.21,0.02-0.3-0.17-0.3-0.35c-0.01-0.21-0.03-0.48,0.27-0.5
		C43.21,23.73,43.35,23.91,43.39,24.15z"/>
	<path class="st14" d="M46.18,25.79c0.33,0.03,0.64,0.11,0.7,0.48c0.04,0.21-0.16,0.32-0.35,0.28
		C46.12,26.45,46.21,26.09,46.18,25.79L46.18,25.79z"/>
	<path class="st14" d="M39.52,22.42c-0.03,0.02-0.07,0.06-0.1,0.05c-0.03,0-0.06-0.05-0.09-0.07
		C39.39,22.41,39.45,22.42,39.52,22.42z"/>
	<path class="st14" d="M44.83,23.9c-0.02,0.04-0.04,0.07-0.06,0.11C44.79,23.97,44.81,23.94,44.83,23.9
		C44.83,23.9,44.83,23.9,44.83,23.9z"/>
</g>
<g>
	<linearGradient id="SVGID_1_" gradientUnits="userSpaceOnUse" x1="124.7362" y1="45.045" x2="124.7362" y2="85.483">
		<stop  offset="0" style="stop-color:#F6894D"/>
		<stop  offset="0.3765" style="stop-color:#EE6455"/>
		<stop  offset="0.6411" style="stop-color:#EE4E61"/>
		<stop  offset="0.8377" style="stop-color:#EE4C62"/>
		<stop  offset="1" style="stop-color:#C23D3B"/>
	</linearGradient>
	<path class="st15" d="M135,61.96c0,6.3,0.12,11.22,0.6,16.62l-0.12,0.06c-1.92-4.14-4.26-8.4-7.26-13.14l-12.96-20.46h-5.7v40.44
		h4.92V68.2c0-6.72-0.12-11.58-0.42-16.68l0.18-0.06c2.04,4.38,4.74,9,7.56,13.5l12.84,20.52h5.28V45.04H135V61.96z"/>
	<linearGradient id="SVGID_2_" gradientUnits="userSpaceOnUse" x1="160.4052" y1="45.045" x2="160.4052" y2="85.483">
		<stop  offset="0" style="stop-color:#F6894D"/>
		<stop  offset="0.3765" style="stop-color:#EE6455"/>
		<stop  offset="0.6411" style="stop-color:#EE4E61"/>
		<stop  offset="0.8377" style="stop-color:#EE4C62"/>
		<stop  offset="1" style="stop-color:#C23D3B"/>
	</linearGradient>
	<polygon class="st16" points="154.26,66.52 169.97,66.52 169.97,62.2 154.26,62.2 154.26,49.42 170.88,49.42 170.88,45.04 
		149.04,45.04 149.04,85.48 171.77,85.48 171.77,81.1 154.26,81.1 	"/>
	<linearGradient id="SVGID_3_" gradientUnits="userSpaceOnUse" x1="193.7348" y1="45.045" x2="193.7348" y2="85.483">
		<stop  offset="0" style="stop-color:#F6894D"/>
		<stop  offset="0.3765" style="stop-color:#EE6455"/>
		<stop  offset="0.6411" style="stop-color:#EE4E61"/>
		<stop  offset="0.8377" style="stop-color:#EE4C62"/>
		<stop  offset="1" style="stop-color:#C23D3B"/>
	</linearGradient>
	<path class="st17" d="M203.99,61.96c0,6.3,0.12,11.22,0.6,16.62l-0.12,0.06c-1.92-4.14-4.26-8.4-7.26-13.14l-12.96-20.46h-5.7
		v40.44h4.92V68.2c0-6.72-0.12-11.58-0.42-16.68l0.18-0.06c2.04,4.38,4.74,9,7.56,13.5l12.84,20.52h5.28V45.04h-4.92V61.96z"/>
	<linearGradient id="SVGID_4_" gradientUnits="userSpaceOnUse" x1="221.0653" y1="44.9849" x2="221.0653" y2="51.525">
		<stop  offset="0" style="stop-color:#F6894D"/>
		<stop  offset="0.3765" style="stop-color:#EE6455"/>
		<stop  offset="0.6411" style="stop-color:#EE4E61"/>
		<stop  offset="0.8377" style="stop-color:#EE4C62"/>
		<stop  offset="1" style="stop-color:#C23D3B"/>
	</linearGradient>
	<path class="st18" d="M221.09,44.98c-1.92,0-3.3,1.44-3.3,3.3c0,1.8,1.32,3.24,3.18,3.24c2.1,0,3.42-1.44,3.36-3.24
		C224.33,46.42,223.07,44.98,221.09,44.98z"/>
	<linearGradient id="SVGID_5_" gradientUnits="userSpaceOnUse" x1="221.0941" y1="56.4449" x2="221.0941" y2="85.483">
		<stop  offset="0" style="stop-color:#F6894D"/>
		<stop  offset="0.3765" style="stop-color:#EE6455"/>
		<stop  offset="0.6411" style="stop-color:#EE4E61"/>
		<stop  offset="0.8377" style="stop-color:#EE4C62"/>
		<stop  offset="1" style="stop-color:#C23D3B"/>
	</linearGradient>
	<rect x="218.45" y="56.44" class="st19" width="5.28" height="29.04"/>
	<linearGradient id="SVGID_6_" gradientUnits="userSpaceOnUse" x1="243.0243" y1="45.045" x2="243.0243" y2="85.483">
		<stop  offset="0" style="stop-color:#F6894D"/>
		<stop  offset="0.3765" style="stop-color:#EE6455"/>
		<stop  offset="0.6411" style="stop-color:#EE4E61"/>
		<stop  offset="0.8377" style="stop-color:#EE4C62"/>
		<stop  offset="1" style="stop-color:#C23D3B"/>
	</linearGradient>
	<polygon class="st20" points="228.06,49.48 240.35,49.48 240.35,85.48 245.63,85.48 245.63,49.48 257.99,49.48 257.99,45.04 
		228.06,45.04 	"/>
	<linearGradient id="SVGID_7_" gradientUnits="userSpaceOnUse" x1="266.6635" y1="55.7847" x2="266.6635" y2="85.483">
		<stop  offset="0" style="stop-color:#F6894D"/>
		<stop  offset="0.3765" style="stop-color:#EE6455"/>
		<stop  offset="0.6411" style="stop-color:#EE4E61"/>
		<stop  offset="0.8377" style="stop-color:#EE4C62"/>
		<stop  offset="1" style="stop-color:#C23D3B"/>
	</linearGradient>
	<path class="st21" d="M264.41,62.14h-0.24l-0.18-5.7h-4.62c0.18,2.7,0.24,5.64,0.24,9.06v19.98h5.22V70c0-0.9,0.12-1.74,0.24-2.46
		c0.72-3.96,3.36-6.78,7.08-6.78c0.72,0,1.26,0.06,1.8,0.18v-4.98c-0.48-0.12-0.9-0.18-1.5-0.18
		C268.91,55.78,265.73,58.24,264.41,62.14z"/>
	<linearGradient id="SVGID_8_" gradientUnits="userSpaceOnUse" x1="288.2333" y1="55.7847" x2="288.2333" y2="86.1431">
		<stop  offset="0" style="stop-color:#F6894D"/>
		<stop  offset="0.3765" style="stop-color:#EE6455"/>
		<stop  offset="0.6411" style="stop-color:#EE4E61"/>
		<stop  offset="0.8377" style="stop-color:#EE4C62"/>
		<stop  offset="1" style="stop-color:#C23D3B"/>
	</linearGradient>
	<path class="st22" d="M299.33,67.66c0-5.82-2.16-11.88-11.04-11.88c-3.66,0-7.14,1.02-9.54,2.58l1.2,3.48
		c2.04-1.32,4.86-2.16,7.56-2.16c5.94,0,6.6,4.32,6.6,6.72V67c-11.22-0.06-17.46,3.78-17.46,10.8c0,4.2,3,8.34,8.88,8.34
		c4.14,0,7.26-2.04,8.88-4.32h0.18l0.42,3.66h4.8c-0.36-1.98-0.48-4.44-0.48-6.96V67.66z M294.23,75.7c0,0.54-0.12,1.14-0.3,1.68
		c-0.84,2.46-3.24,4.86-7.02,4.86c-2.7,0-4.98-1.62-4.98-5.04c0-5.64,6.54-6.66,12.3-6.54V75.7z"/>
	<linearGradient id="SVGID_9_" gradientUnits="userSpaceOnUse" x1="317.5141" y1="56.4449" x2="317.5141" y2="85.483">
		<stop  offset="0" style="stop-color:#F6894D"/>
		<stop  offset="0.3765" style="stop-color:#EE6455"/>
		<stop  offset="0.6411" style="stop-color:#EE4E61"/>
		<stop  offset="0.8377" style="stop-color:#EE4C62"/>
		<stop  offset="1" style="stop-color:#C23D3B"/>
	</linearGradient>
	<path class="st23" d="M320.09,72.76c-0.96,2.64-1.8,5.04-2.46,7.44h-0.18c-0.6-2.4-1.38-4.8-2.34-7.44l-5.7-16.32h-5.64
		l11.04,29.04h5.04l11.4-29.04h-5.52L320.09,72.76z"/>
	<linearGradient id="SVGID_10_" gradientUnits="userSpaceOnUse" x1="346.3437" y1="55.7847" x2="346.3437" y2="86.0836">
		<stop  offset="0" style="stop-color:#F6894D"/>
		<stop  offset="0.3765" style="stop-color:#EE6455"/>
		<stop  offset="0.6411" style="stop-color:#EE4E61"/>
		<stop  offset="0.8377" style="stop-color:#EE4C62"/>
		<stop  offset="1" style="stop-color:#C23D3B"/>
	</linearGradient>
	<path class="st24" d="M347.15,55.78c-8.46,0-13.62,6.9-13.62,15.66s5.34,14.64,14.28,14.64c4.62,0,7.8-0.96,9.66-1.8l-0.9-3.78
		c-1.98,0.84-4.26,1.5-8.04,1.5c-5.28,0-9.84-2.94-9.96-10.08h20.4c0.06-0.54,0.18-1.38,0.18-2.46
		C359.15,64.12,356.63,55.78,347.15,55.78z M338.63,68.14c0.42-3.66,2.76-8.58,8.1-8.58c5.94,0,7.38,5.22,7.32,8.58H338.63z"/>
	<linearGradient id="SVGID_11_" gradientUnits="userSpaceOnUse" x1="368.3334" y1="42.8853" x2="368.3334" y2="85.483">
		<stop  offset="0" style="stop-color:#F6894D"/>
		<stop  offset="0.3765" style="stop-color:#EE6455"/>
		<stop  offset="0.6411" style="stop-color:#EE4E61"/>
		<stop  offset="0.8377" style="stop-color:#EE4C62"/>
		<stop  offset="1" style="stop-color:#C23D3B"/>
	</linearGradient>
	<rect x="365.69" y="42.89" class="st25" width="5.28" height="42.6"/>
</g>
</svg>
