<svg id="Layer_1" data-name="Layer 1" xmlns="http://www.w3.org/2000/svg" xmlns:xlink="http://www.w3.org/1999/xlink" viewBox="0 0 365.53 86.3"><defs><style>.cls-1{fill:#f47354;}.cls-2{fill:#f58150;}.cls-3{fill:#ee4c62;}.cls-4{fill:#f1605c;}.cls-5{fill:#f6894d;}.cls-6{fill:#ee6455;}.cls-7{fill:#f36c59;}.cls-8{fill:#dc5a46;}.cls-9{fill:#f36e56;}.cls-10{fill:#f16759;}.cls-11{fill:#cf4645;}.cls-12{fill:#e95759;}.cls-13{fill:#c23d3b;}.cls-14{fill:#e34c56;}.cls-15{fill:#f57b52;}.cls-16{fill:url(#linear-gradient);}.cls-17{fill:url(#linear-gradient-2);}.cls-18{fill:url(#linear-gradient-3);}.cls-19{fill:url(#linear-gradient-4);}.cls-20{fill:url(#linear-gradient-5);}.cls-21{fill:url(#linear-gradient-6);}.cls-22{fill:url(#linear-gradient-7);}.cls-23{fill:url(#linear-gradient-8);}.cls-24{fill:url(#linear-gradient-9);}.cls-25{fill:url(#linear-gradient-10);}.cls-26{fill:url(#linear-gradient-11);}</style><linearGradient id="linear-gradient" x1="124.74" y1="45.04" x2="124.74" y2="85.48" gradientUnits="userSpaceOnUse"><stop offset="0" stop-color="#f6894d"/><stop offset="0.38" stop-color="#ee6455"/><stop offset="0.64" stop-color="#ee4e61"/><stop offset="0.84" stop-color="#ee4c62"/><stop offset="1" stop-color="#c23d3b"/></linearGradient><linearGradient id="linear-gradient-2" x1="154.96" y1="24.62" x2="154.96" y2="65.06" xlink:href="#linear-gradient"/><linearGradient id="linear-gradient-3" x1="193.73" y1="45.04" x2="193.73" y2="85.48" xlink:href="#linear-gradient"/><linearGradient id="linear-gradient-4" x1="221.07" y1="44.98" x2="221.07" y2="51.52" xlink:href="#linear-gradient"/><linearGradient id="linear-gradient-5" x1="215.65" y1="36.02" x2="215.65" y2="65.06" xlink:href="#linear-gradient"/><linearGradient id="linear-gradient-6" x1="237.58" y1="24.62" x2="237.58" y2="65.06" xlink:href="#linear-gradient"/><linearGradient id="linear-gradient-7" x1="266.66" y1="55.78" x2="266.66" y2="85.48" xlink:href="#linear-gradient"/><linearGradient id="linear-gradient-8" x1="288.23" y1="55.78" x2="288.23" y2="86.14" xlink:href="#linear-gradient"/><linearGradient id="linear-gradient-9" x1="317.51" y1="56.44" x2="317.51" y2="85.48" xlink:href="#linear-gradient"/><linearGradient id="linear-gradient-10" x1="346.34" y1="55.78" x2="346.34" y2="86.08" xlink:href="#linear-gradient"/><linearGradient id="linear-gradient-11" x1="362.89" y1="22.46" x2="362.89" y2="65.06" xlink:href="#linear-gradient"/></defs><title>Neni2</title><path class="cls-1" d="M64.06,47.11c-2.41.13-4.1,1.7-6,3-.33.22-.54.61-1,.65-.67-.26-1.35.77-2,0-.13-.71.42-1.85-.9-1.86-2.26,0-4.42-.71-6.65-.83-.89,0-1.06-.59-.74-1.15.74-1.28-.17-1.18-.94-1.3-1.61-.25-3.34,0-4.74-1.14a.85.85,0,0,0-.9-.09,4.85,4.85,0,0,1-2.27.12c-1-.1-2.11-.07-2.23-1.56,0-.57-.56-.81-1.19-.86-1.43-.12-2.84-.39-4.26-.5-.61,0-.8-.28-1-.85-.51-1.74-1-1.93-2.78-1.28-1.23.46-1.59.26-1.75-1-.13-1-.61-1.68-1.67-1.41-1.43.35-1.56-.46-1.59-1.49a4.74,4.74,0,0,0-.08-1.07c-.31-1.38-.85-1.6-1.93-.69a2.33,2.33,0,0,1-2.32.55C16,33.9,15.07,32.7,13.61,33c-.33.08-.4-.29-.21-.56.49-.69.28-1.41.28-2.18a10.55,10.55,0,0,1-2.42.89A20.48,20.48,0,0,1,16,26.36a21.42,21.42,0,0,1,6.78-3.84,1.82,1.82,0,0,0,1.74-.67c0-.07.06-.09.12-.07a2.64,2.64,0,0,0,1.28,0A21.93,21.93,0,0,1,32.65,21c0,.57-.63.44-.81.79-.3,0-.62,0-.81.27-.38,0-.8-.12-1.08.27v.27a2.75,2.75,0,0,0-1.76.53c-2.49,1.56-4.12,3.87-5.73,6.37a4.38,4.38,0,0,1,2.3.73,1.37,1.37,0,0,0,2.35-.34c.43-.68.78-.63,1.21,0,.13.18.29.46.45.46,1.51,0,2.66.4,2.69,2.2a.25.25,0,0,0,.17.19c1.38.25,2.58,1.66,4.17.65a1.14,1.14,0,0,1,.9-.18c1.73.94,4.22-.08,5.47,2.11.12.19.46.28.71.38a1.6,1.6,0,0,1,1,1,2.06,2.06,0,0,0,2.36,1.55c1.48-.15,2.54,1.15,4,.93.13,0,.42.26.45.43C51,41.2,52,40.78,53,40.27c.51-.24,1.2-.35,1.42.26.45,1.24,1.4,1.22,2.41,1.22,1.94,0,3.8.17,4.77,2.26,0,.11.19.26.29.26,1.52.07,1.88,1.18,2.17,2.36Z" transform="translate(-5.45 -20.42)"/><path class="cls-2" d="M58.62,24.15a17.62,17.62,0,0,1,6.11-2.65,23.1,23.1,0,0,1,10.64-.75c-1.59.39-3.22.08-4.82.18a22.53,22.53,0,0,0-8.8,2.12c-.27.13-.76.11-.52.55C62,25,61,25,60.11,25c-.27,0-.55.15-.51.49s.32.25.53.28a3.52,3.52,0,0,0,2.28-.69c.76-.44,2.75-.28,2.9.36.39,1.77,1.69,1.42,2.86,1.41,1,0,1.7.28,1.83,1.36.09.72.57.81,1.16.81,1.18,0,2.35,0,3.52,0,.56,0,1.41,0,1.47.67.14,1.64,1.23,1.5,2.33,1.48a9.15,9.15,0,0,1,1.89,0c.82.16,2.12-.06,2.36.66.53,1.62,1.68,1.17,2.72,1.19.89,0,1.73.18,1.81,1.19s.79,1.26,1.66,1.26a4.88,4.88,0,0,1,3.44.8c.53.44,1.77,1.18,2.1-.53.06-.3.65-.29.66-.19.08,1.07,1.42,1.49,1.36,2.56-.1,1.48,1.51,1.84,1.71,3.1.22-.72-.42-1.38.25-2a18,18,0,0,1,1.25,5.46c-.48,2.31.11,4.69-.46,7-.39-.09-.58.58-.93.31s-.16-.67-.12-1,.17-.52.21-.78c.23-1.48,0-1.58-1.45-1.79-1.17-.17-2.82.35-3.17-1.59,0-.16-.32-.35-.52-.39-1.54-.34-3-1.3-4.65-1a7.13,7.13,0,0,1-2-.14c-1.21-.12-1.52-.74-1.45-1.79,0-.69-.06-1.38-1-1.27-2.19.27-4.26-.72-6.42-.57A.88.88,0,0,1,76.71,41c-.52-1.47-2.59-1.47-3.09-3,0,0-.17,0-.26,0-2-.19-4.1-.38-6.15-.54A2,2,0,0,1,66,37a6.74,6.74,0,0,0-5-1.79c-.86.06-1.27-.26-1.91-1.07a15.52,15.52,0,0,0-2.87-2.58c-.93-.69-2.58-.56-3.9-.53-1.73,0-2.25-.3-2.26-2,.48,0,1-.11,1.1.64,0,.33.19.65.59.59s.45-.39.47-.72,0-.7.42-.72.6.3.67.7.5,1,.64.68c.36-.84,1.66-1.05,1.49-2.07-.22-1.36.74-1.85,1.59-2.29a1.4,1.4,0,0,0,.88-1.18l.45-.25Z" transform="translate(-5.45 -20.42)"/><path class="cls-3" d="M67.31,92.1c-2.06,2.22-4.27,4.28-6.43,6.4-1.62,1.59-3.22,3.23-4.74,4.92-.94,1.06-2.31,1.68-3,3-.23.42-.58.43-1,0-3.49-3.39-6.9-6.84-8.52-11.6-.26-.75-.45-1.52-.67-2.28l.32-.15-.36-.1-.18-.58c.6-1.24-.37-2.32-.35-3.49A21.23,21.23,0,0,0,42.23,84a1.12,1.12,0,0,1,.1-.86c.65-.47.21-1.13.31-1.7-.11-.73.3-1.37.35-2.08.56,0,.41-.63.76-.81.06.63-.26,1.58.75,1.59,2.67,0,3.65,2.88,6,3.44.15,0,.25.45.3.7a1.05,1.05,0,0,0,.47.79,6.31,6.31,0,0,1,2,2.33,22.69,22.69,0,0,1,2.56,3.72c.35.82,1.44,1.31,1.28,2.48a.49.49,0,0,0,.5.53c.32,0,.45-.25.53-.52a10.57,10.57,0,0,0,.55-3.43l.54-2.43a6.62,6.62,0,0,0,2.11-.39c1.55-.35,2-.16,2.5,1.32.18.52.52.8,1,.67,1.39-.4,2.33.42,3.34,1.11l0,.84v0l-.28.35-.19.21Zm-9.8,3.58c0-.19-.12-.33-.28-.26a.45.45,0,0,0-.16.31c0,.14.1.28.26.21S57.46,95.75,57.51,95.68Z" transform="translate(-5.45 -20.42)"/><path class="cls-4" d="M68.11,90.42c-1-.69-2-1.51-3.34-1.11-.47.13-.81-.15-1-.67-.52-1.48-1-1.67-2.5-1.32a6.62,6.62,0,0,1-2.11.39c0-.82,0-1.63,0-2.44,0-1.85.08-3.7,0-5.54a8.71,8.71,0,0,0-.72-3.92c0-.38,0-.75,0-1.13s.42-1-.27-1.28l-.11-.83c.44-.72,0-1.3-.32-1.88h0V68.11c.52.18.27,1,.86,1.06.45-.18.08-.69.39-.93a2.83,2.83,0,0,0,2,2.3c1.55.17,3,1,4.62.68a11.32,11.32,0,0,1,3.85,1.83,5,5,0,0,0,3.33,1.16,9.8,9.8,0,0,1,2.42,0c1.28.17,2.57.34,3.14,1.84.23.62.79,1.34,1.51,1.06s1.7-.25,2.52-.5l.06.07c-.78,1.68-2.54,2.43-3.65,3.79-2.32,2.84-5.38,4.94-7.67,7.8l-.36.28,0,0-.28.34-.22.21c-.39,0-.61.14-.58.56v0l-.28.28h0A3.38,3.38,0,0,0,68.11,90.42Z" transform="translate(-5.45 -20.42)"/><path class="cls-5" d="M98.44,39.3c-.67.59,0,1.25-.25,2-.2-1.26-1.81-1.62-1.71-3.1.06-1.07-1.28-1.49-1.36-2.56,0-.1-.6-.11-.66.19-.33,1.71-1.57,1-2.1.53a4.88,4.88,0,0,0-3.44-.8c-.87,0-1.56-.1-1.66-1.26s-.92-1.17-1.81-1.19c-1,0-2.19.43-2.72-1.19-.24-.72-1.54-.5-2.36-.66a9.15,9.15,0,0,0-1.89,0c-1.1,0-2.19.16-2.33-1.48-.06-.64-.91-.64-1.47-.67-1.17,0-2.34,0-3.52,0-.59,0-1.07-.09-1.16-.81-.13-1.08-.85-1.37-1.83-1.36-1.17,0-2.47.36-2.86-1.41-.15-.64-2.14-.8-2.9-.36a3.52,3.52,0,0,1-2.28.69c-.21,0-.5,0-.53-.28s.24-.48.51-.49C61,25,62,25,61.23,23.6c-.24-.44.25-.42.52-.55a22.53,22.53,0,0,1,8.8-2.12c1.6-.1,3.23.21,4.82-.18l.59.08c2.09.9,4.36,1.13,6.54,1.7a.27.27,0,0,1,.23,0,2.22,2.22,0,0,0,2,1l.07,0,.06,0a2.33,2.33,0,0,0,2,1.08,19.78,19.78,0,0,1,5.52,4.39,25.34,25.34,0,0,1,5.73,9.15h-.19l-.13,0,.11.07.28.26Z" transform="translate(-5.45 -20.42)"/><path class="cls-6" d="M65.67,71.22c-1.6.3-3.07-.51-4.62-.68a2.83,2.83,0,0,1-2-2.3c-.31.24.06.75-.39.93-.59-.09-.34-.88-.86-1.06V70.7a45.34,45.34,0,0,1-1.26-6.53c.25-.21.51-.78.84-.38,1.3,1.62,1-.09,1.26-.57a2.84,2.84,0,0,0,3.21.44c1.13-.6,2.35,0,3.37-.36,1.82-.67,3.64-.35,5.46-.47.35,0,.8.07,1-.11,2-1.39,4.81-.5,6.7-2.26.13-.12.51,0,.78.07,2.51.42,5.17-.34,7.58.95v.27c-.07,1.29.41,2.72-.18,3.84-1.16,2.23-1,4.64-1.44,7a1.61,1.61,0,0,1-1.39-1.12c-.11-.26-.32-.5-.62-.37a.7.7,0,0,0-.38.49c-.06.59-.12,1.12-.91,1s-1.32-.36-1.31-1.26c0-.52-.24-.86-.81-.86a.7.7,0,0,0-.79.74c0,.89-.55.92-1.17.85-1.28-.15-2.64.43-3.83-.7-.43-.41-1.37-.06-2.08.1-1.45.33-1.84,0-1.87-1.39,0-.23,0-.45,0-.68-.08-1.26-.94-1.75-2-1.1A4,4,0,0,0,65.67,71.22Z" transform="translate(-5.45 -20.42)"/><path class="cls-7" d="M6.94,39l.24-.58c1-.31.76-1.16.82-1.88H8l.3,0c.07.32-.16.73.36,1,.32-.93.95-.93,1.81-.76,1.2.23,2.2,1.2,3.54.93.12,0,.4.26.45.44.2.86,1,1.13,1.59,1.55a3.49,3.49,0,0,0,4.24-.82c.39-.53.55-.38.8.15a2.69,2.69,0,0,0,2.72,1.58c.5,0,1,0,1.49,0,.24,0,.47.06.51.33a.36.36,0,0,1-.39.44c-.73,0-.93.36-.88,1s0,1.18.62,1.36,1.33.29,1.76-.31c.82-1.16,2-.8,2.94-.57s.85,1.28.89,2.08.36,1.06,1.09,1a2.21,2.21,0,0,0,1.75-.5.88.88,0,0,1,1.5.13c.78,1.72,2.69,2,3.83,3.25s2.64,1.13,4.05,1.42a1.44,1.44,0,0,0,1.44-.57c.51-.72.81-.44,1.2.1.26.36.69.61.9,1,.49.86.92,1,1.77.32a1.13,1.13,0,0,1,2,.72.93.93,0,0,0,1.1.89h1.89c.45.48.89-.17,1.34,0l0,.06a24,24,0,0,1-3.48,3.71c-.46.47-1,.1-1.54,0C46,56,42.44,55.3,38.86,54.67c-.79-.14-1.6-.17-2.4-.24-.42-.39-.77-.89-1.36-1-1.66-.36-3-1.43-4.6-2a6.18,6.18,0,0,0-1.9-1.34L26.7,48.5l-1-1.09a29.68,29.68,0,0,1-2.83-3.77c.05-.83-.64-1.23-1-1.83-.54-.94-.83-1-1.37,0-.74,1.39-1.41,1.53-2.69.69a1.59,1.59,0,0,0-2.58.52c-.38.6-2.72,1-3,.45-.59-1.31-1.92-1.14-2.85-1.73A5.72,5.72,0,0,1,6.94,39Z" transform="translate(-5.45 -20.42)"/><path class="cls-8" d="M86.78,61.48c-2.41-1.29-5.07-.53-7.58-.95-.27,0-.65-.19-.78-.07-1.89,1.76-4.68.87-6.7,2.26-.25.18-.7.09-1,.11-1.82.12-3.64-.2-5.46.47-1,.37-2.24-.24-3.37.36a2.84,2.84,0,0,1-3.21-.44c-.28.48,0,2.19-1.26.57-.33-.4-.59.17-.84.38a2.49,2.49,0,0,1,.63-3.33c1.91-1.76,3.71-3.64,5.55-5.46l1.61-1.73c.24.48-.09,2.11,1.18.58.07-.09.34,0,.52,0,2.39-.23,4.83-.08,7.11-1.09a4.6,4.6,0,0,1,2-.26,48.53,48.53,0,0,0,5.26,0,2.56,2.56,0,0,1,2.12.68c.87.72,1.54,1.7,2.67,2.08A9.21,9.21,0,0,1,86.78,61.48Z" transform="translate(-5.45 -20.42)"/><path class="cls-9" d="M53.22,52.83H51.33a.93.93,0,0,1-1.1-.89,1.13,1.13,0,0,0-2-.72c-.85.71-1.28.54-1.77-.32-.21-.38-.64-.63-.9-1-.39-.54-.69-.82-1.2-.1a1.44,1.44,0,0,1-1.44.57c-1.41-.29-3-.24-4.05-1.42s-3-1.53-3.83-3.25a.88.88,0,0,0-1.5-.13,2.21,2.21,0,0,1-1.75.5c-.73,0-1-.31-1.09-1s-.08-1.89-.89-2.08-2.12-.59-2.94.57c-.43.6-1.17.48-1.76.31s-.59-.81-.62-1.36.15-1,.88-1A.36.36,0,0,0,25.8,41c0-.27-.27-.33-.51-.33-.49,0-1,0-1.49,0a2.69,2.69,0,0,1-2.72-1.58c-.25-.53-.41-.68-.8-.15a3.49,3.49,0,0,1-4.24.82c-.59-.42-1.39-.69-1.59-1.55,0-.18-.33-.46-.45-.44-1.34.27-2.34-.7-3.54-.93-.86-.17-1.49-.17-1.81.76-.52-.26-.29-.67-.36-1h.27c.66-.35.63-1,.82-1.62a1.42,1.42,0,0,1,.54-1.14c.59-.35.38-.78.28-1.22a3,3,0,0,1,1.06-1.44,10.55,10.55,0,0,0,2.42-.89c0,.77.21,1.49-.28,2.18-.19.27-.12.64.21.56,1.46-.34,2.38.86,3.61,1.17a2.33,2.33,0,0,0,2.32-.55c1.08-.91,1.62-.69,1.93.69a4.74,4.74,0,0,1,.08,1.07c0,1,.16,1.84,1.59,1.49,1.06-.27,1.54.4,1.67,1.41.16,1.31.52,1.51,1.75,1,1.77-.65,2.27-.46,2.78,1.28.16.57.35.8,1,.85,1.42.11,2.83.38,4.26.5.63,0,1.14.29,1.19.86.12,1.49,1.25,1.46,2.23,1.56a4.85,4.85,0,0,0,2.27-.12.85.85,0,0,1,.9.09c1.4,1.15,3.13.89,4.74,1.14.77.12,1.68,0,.94,1.3-.32.56-.15,1.1.74,1.15,2.23.12,4.39.79,6.65.83,1.32,0,.77,1.15.9,1.86a.59.59,0,0,1-.27.54C53.57,51,53,51.56,53.22,52.83Z" transform="translate(-5.45 -20.42)"/><path class="cls-10" d="M6.94,39a5.72,5.72,0,0,0,2.53,2.71c.93.59,2.26.42,2.85,1.73.24.55,2.58.15,3-.45a1.59,1.59,0,0,1,2.58-.52c1.28.84,1.95.7,2.69-.69.54-1,.83-1,1.37,0,.35.6,1,1,1,1.83-.82.16-.71,1-.73,1.41a10.57,10.57,0,0,1-1.71,5.62c-1.11,0-2.47-.36-2.57,1.48,0,.13-.31.33-.5.36-.84.13-1.69.24-2.53.3-.46,0-1-.11-1.09-.6-.12-1.53-1.37-1.34-2.29-1.5a11,11,0,0,0-2.69,0c-1,.07-1.78,0-1.62-1.39A1.36,1.36,0,0,0,6.47,48a2.11,2.11,0,0,1-.1,1.71,3.14,3.14,0,0,0-.57,1.63A23.43,23.43,0,0,1,6.94,39Z" transform="translate(-5.45 -20.42)"/><path class="cls-4" d="M5.8,51.31a3.14,3.14,0,0,1,.57-1.63A2.11,2.11,0,0,0,6.47,48a1.36,1.36,0,0,1,.71,1.32c-.16,1.34.58,1.46,1.62,1.39a11,11,0,0,1,2.69,0c.92.16,2.17,0,2.29,1.5.05.49.63.63,1.09.6.84-.06,1.69-.17,2.53-.3.19,0,.5-.23.5-.36.1-1.84,1.46-1.44,2.57-1.48a3.39,3.39,0,0,1-.73,4.66,1.89,1.89,0,0,0-.89,1.83,1.17,1.17,0,0,1,0,.26,49.1,49.1,0,0,0-3,6.32c-.21.62-.64.45-.94.2-.54-.46-1-.75-1.49,0-.24.35-.76.15-1.14.28.09-1.16-.48-1.66-1.6-1.65h0l-.28-.3h0l-.26-.3,0-.05,0-.06-.29-.41v0c.18-.7-.31-.93-.81-1.15v-.09c-.17-.54.15-1.4-.88-1.42l0,0c.07-.27,0-.49-.28-.56H8a16,16,0,0,0-2-5.44A3.36,3.36,0,0,1,5.8,51.31Z" transform="translate(-5.45 -20.42)"/><path class="cls-1" d="M86.78,61.48a9.21,9.21,0,0,0-1.62-5.94,11.78,11.78,0,0,0-3-4.87c1.55-.34,2.86.52,4.2,1,.69.25.6,1.38.69,2.17.06.51.4.88.72.3.68-1.23,1.62-.53,2.48-.49.24,0,.47.07.5.35s-.15.39-.39.44-.58.1-.53.46a.46.46,0,0,0,.62.35c1.94-.47,3.59.93,5.47.84a1.07,1.07,0,0,1,1.12,1c.08.38.06.8.58,1a9.31,9.31,0,0,0,.79-4.43c.31-.19.26-.51.27-.81.72-.09.49-.65.54-1.08.57-2.3,0-4.68.46-7,1,7.15-.87,13.6-4.87,19.5a4.53,4.53,0,0,1-.91.77c-.61-.25-1.29,1.23-1.87-.09-.08-.18-.32,0-.35.19-.07.38-.2.73-.67.64a.9.9,0,0,1-.7-1,1.59,1.59,0,0,0-1.14-1.63,6.45,6.45,0,0,1-2.4-1.38Z" transform="translate(-5.45 -20.42)"/><path class="cls-11" d="M33.16,69.85a20.4,20.4,0,0,1-10.52.24c.17-.75.6-.31.91-.17.82.36,1.28.34,1.68-.71s-.08-2.52.86-3.61A4.88,4.88,0,0,0,27,62.83c.42-.41.28-1.08.8-1.5,1.47-1.17,1.5-3.62,3.67-4.2.06,0,.09-.15.13-.23.5-.47,1,.2,1.53,0-.29.35-.08.53.23.69l2.84,1.48c-.16.28-.77.49-.43.85.87.93.17,1.44-.41,2-.42.41-.74.89-.35,1.42.61.81.26,1.42-.11,2.2-.47,1-1.69,1.89-.57,3.16-.83.4-1.11-1.55-2.07-.36C32.58,68.82,33.84,68.77,33.16,69.85Z" transform="translate(-5.45 -20.42)"/><path class="cls-11" d="M59.16,85.27c0,.81,0,1.62,0,2.44l-.54,2.43c-1.29.19-1.7-.48-1.62-1.64A10.6,10.6,0,0,0,57,87c-.06-.75-.33-1.5-1.11-1.66s-.77-.63-1-1.1c-.69-1.47-1.13-3.17-3.12-3.51-.5-.09-.81-.55-1.15-.91-.49-.54-1.09-1.19-1.72-1.21a4.22,4.22,0,0,1-2.51-1.41,3.21,3.21,0,0,0-1.83-.86l0-.59h0l.33,0c.2-.08.2-.17,0-.27l-.06-.33,0,0a1.9,1.9,0,0,0,1.09-1.94l0,0a1.62,1.62,0,0,0,1.31-1.18c.21-.53.56-1.25,1.28-.29a.91.91,0,0,0,1.21.3c1-.7.87.09.89.66s.14,1,.63.76c1.33-.7,1.26.43,1.65,1.07.81,1.32.84,3,2.09,4.13.47.27.24,1.2,1.06,1.15.25,1.25-.09,2.72,1.35,3.53a.6.6,0,0,1,.21.48C57.36,85.27,58.16,85.39,59.16,85.27Z" transform="translate(-5.45 -20.42)"/><path class="cls-12" d="M12.28,64.26c.38-.13.9.07,1.14-.28.52-.79.95-.5,1.49,0,.3.25.73.42.94-.2a49.1,49.1,0,0,1,3-6.32,1.17,1.17,0,0,0,0-.26c1.12-.14,2.42.45,3.32-.43a1.85,1.85,0,0,1,2.36-.38,1.34,1.34,0,0,1-.6,1.27A1.72,1.72,0,0,0,23.3,60a1.92,1.92,0,0,1,.05,2.25,7.31,7.31,0,0,0-1.8,4.88c0,.41.16,1-.51,1S20,68.76,19.4,69A18.21,18.21,0,0,1,12.28,64.26Z" transform="translate(-5.45 -20.42)"/><path class="cls-13" d="M64.32,53.65l-1.61,1.73c.21-1.22,1.16-2,1.81-3a8.29,8.29,0,0,0,1.29-3.78c.17-1.3-.69-1.57-1.75-1.54,0-.16,0-.32,0-.48.4-.06.8-.1,1.19-.19,6.12-1.38,11.66-.38,16.39,4-.16.21-.36.16-.6.15-1.33-.09-2.75-.77-4-.31-2.62,1-5.44-.13-8.08,1.16C67.46,52.15,65.63,52.34,64.32,53.65Z" transform="translate(-5.45 -20.42)"/><path class="cls-13" d="M33.16,69.85c.68-1.08-.58-1-.93-1.52,1-1.19,1.24.76,2.07.36-1.12-1.27.1-2.18.57-3.16.37-.78.72-1.39.11-2.2-.39-.53-.07-1,.35-1.42.58-.56,1.28-1.07.41-2-.34-.36.27-.57.43-.85,3,.66,5.64,2.18,8.47,3.27.61.23.07.58-.13.78C41.25,66.23,37.73,68.93,33.16,69.85Z" transform="translate(-5.45 -20.42)"/><path class="cls-14" d="M19.4,69c.55-.26,1-.76,1.64-.81s.51-.64.51-1a7.31,7.31,0,0,1,1.8-4.88A1.92,1.92,0,0,0,23.3,60a1.72,1.72,0,0,1,.63-2.41,1.34,1.34,0,0,0,.6-1.27,1.37,1.37,0,0,0,1.25-1,14.7,14.7,0,0,0,.1-2.49c.37,0,.82,0,.79.5-.11,1.89,2,3.39.94,5.45,0,.07.06.26.14.35.56.7.21,1.2-.29,1.75S26.32,62,27,62.83a4.88,4.88,0,0,1-.88,2.77c-.94,1.09-.42,2.43-.86,3.61s-.86,1.07-1.68.71c-.31-.14-.74-.58-.91.17A8.44,8.44,0,0,1,19.4,69Z" transform="translate(-5.45 -20.42)"/><path class="cls-7" d="M86.78,61.75a6.45,6.45,0,0,0,2.4,1.38,1.59,1.59,0,0,1,1.14,1.63.9.9,0,0,0,.7,1c.47.09.6-.26.67-.64,0-.19.27-.37.35-.19.58,1.32,1.26-.16,1.87.09-1,2.09-2.91,3.48-4.49,5.09-1.06,1.08-2,2.37-3.4,3-.4.18-.14.72-.56.84,0-.29,0-.58,0-.87l-.26-.54c.4-2.34.28-4.75,1.44-7C87.19,64.47,86.71,63,86.78,61.75Z" transform="translate(-5.45 -20.42)"/><path class="cls-13" d="M33.1,56.89c-.51.21-1-.46-1.53,0-.37-.17-.61-.59-1.08-.56A6.43,6.43,0,0,1,30.22,54c0-.83,1-1.57.28-2.49,1.59.53,2.94,1.6,4.6,2,.59.12.94.62,1.36,1Z" transform="translate(-5.45 -20.42)"/><path class="cls-13" d="M59.16,85.27c-1,.12-1.8,0-1.66-1.33a.6.6,0,0,0-.21-.48c-1.44-.81-1.1-2.28-1.35-3.53a12.57,12.57,0,0,0,2.48-4.12,8.71,8.71,0,0,1,.72,3.92C59.24,81.57,59.16,83.42,59.16,85.27Z" transform="translate(-5.45 -20.42)"/><path class="cls-13" d="M54.88,78.78c-1.25-1.1-1.28-2.81-2.09-4.13-.39-.64-.32-1.77-1.65-1.07-.49.26-.61-.32-.63-.76s.13-1.36-.89-.66a.91.91,0,0,1-1.21-.3c-.72-1-1.07-.24-1.28.29a1.62,1.62,0,0,1-1.31,1.18,19.52,19.52,0,0,1,4.06-5.11c.29-.3.51-.42.74.15C52,71.85,53.64,75.23,54.88,78.78Z" transform="translate(-5.45 -20.42)"/><path class="cls-15" d="M57.82,24.67a1.4,1.4,0,0,1-.88,1.18c-.85.44-1.81.93-1.59,2.29.17,1-1.13,1.23-1.49,2.07-.14.33-.58-.28-.64-.68s-.24-.72-.67-.7-.39.42-.42.72-.1.66-.47.72-.56-.26-.59-.59c-.06-.75-.62-.62-1.1-.64h0A1.2,1.2,0,0,0,49.59,28a1.18,1.18,0,0,1-.16-1.65l1,.27a3.19,3.19,0,0,0,.44.31c.75.34,1.07,1.58,1.95,1.32s1.3-1,2-1.54A9.26,9.26,0,0,1,57.82,24.67Z" transform="translate(-5.45 -20.42)"/><path class="cls-9" d="M32.65,21a21.93,21.93,0,0,0-6.69.82,2.64,2.64,0,0,1-1.28,0,24.19,24.19,0,0,1,11.72-1c-.31.28-.69.14-1,.19H32.65Z" transform="translate(-5.45 -20.42)"/><path class="cls-9" d="M37.52,20.92a21.1,21.1,0,0,1,8.71,2.93l0,.06H44.83c0-.45-.35-.58-.68-.73a26.45,26.45,0,0,0-6.62-2Z" transform="translate(-5.45 -20.42)"/><path class="cls-2" d="M82.5,22.53c-2.18-.57-4.45-.8-6.54-1.7A15.24,15.24,0,0,1,82.5,22.53Z" transform="translate(-5.45 -20.42)"/><path class="cls-4" d="M85.42,73.11c0,.29,0,.58,0,.87-1.18.69-1.79,2-3,2.7l-.06-.07c0-.51-.19-1.26.34-1.46C83.9,74.73,84.45,73.66,85.42,73.11Z" transform="translate(-5.45 -20.42)"/><path class="cls-12" d="M6,52.85a16,16,0,0,1,2,5.44A13.17,13.17,0,0,1,6,52.85Z" transform="translate(-5.45 -20.42)"/><path class="cls-7" d="M54.85,51.21a.59.59,0,0,0,.27-.54c.65.81,1.33-.22,2,0a8.15,8.15,0,0,1-2.26,1.87l0,0Z" transform="translate(-5.45 -20.42)"/><path class="cls-14" d="M42.23,84a21.23,21.23,0,0,1,.16,4.29h-.2A12.67,12.67,0,0,1,42.23,84Z" transform="translate(-5.45 -20.42)"/><path class="cls-4" d="M42.19,88.26h.2c0,1.17,1,2.25.35,3.49A9.2,9.2,0,0,1,42.19,88.26Z" transform="translate(-5.45 -20.42)"/><path class="cls-10" d="M10.2,32.63c.1.44.31.87-.28,1.22A1.42,1.42,0,0,0,9.38,35a.9.9,0,0,0-.54.54H8.58l-.07-.06A7.71,7.71,0,0,1,10.2,32.63Z" transform="translate(-5.45 -20.42)"/><path class="cls-12" d="M10.68,62.61c1.12,0,1.69.49,1.6,1.65A3.7,3.7,0,0,1,10.68,62.61Z" transform="translate(-5.45 -20.42)"/><path class="cls-9" d="M50.41,26.6l-1-.27c-.26-.45-1-.38-1.09-1.06l.06-.07A4.59,4.59,0,0,1,50.41,26.6Z" transform="translate(-5.45 -20.42)"/><path class="cls-13" d="M45.84,73.3a1.9,1.9,0,0,1-1.09,1.94A4.09,4.09,0,0,1,45.84,73.3Z" transform="translate(-5.45 -20.42)"/><path class="cls-2" d="M84.75,23.59a2.22,2.22,0,0,1-2-1A3.81,3.81,0,0,1,84.75,23.59Z" transform="translate(-5.45 -20.42)"/><path class="cls-2" d="M86.83,24.69a2.33,2.33,0,0,1-2-1.08A3.4,3.4,0,0,1,86.83,24.69Z" transform="translate(-5.45 -20.42)"/><path class="cls-10" d="M8,36.58c-.06.72.19,1.57-.82,1.88A3.94,3.94,0,0,1,8,36.58Z" transform="translate(-5.45 -20.42)"/><path class="cls-14" d="M68.11,90.42a3.38,3.38,0,0,1,1.37-.53,3.55,3.55,0,0,1-1.35,1.37C68.12,91,68.12,90.7,68.11,90.42Z" transform="translate(-5.45 -20.42)"/><path class="cls-9" d="M24.56,21.85a1.82,1.82,0,0,1-1.74.67A2.56,2.56,0,0,1,24.56,21.85Z" transform="translate(-5.45 -20.42)"/><path class="cls-15" d="M37.52,20.92v.27c-.72-.1-1.5.26-2.17-.25.35-.05.73.09,1-.19Z" transform="translate(-5.45 -20.42)"/><path class="cls-12" d="M8.19,58.87c1,0,.71.88.88,1.42A2.1,2.1,0,0,1,8.19,58.87Z" transform="translate(-5.45 -20.42)"/><path class="cls-6" d="M57.77,70.69c.37.58.76,1.16.32,1.88A3.68,3.68,0,0,1,57.77,70.69Z" transform="translate(-5.45 -20.42)"/><path class="cls-14" d="M42.64,81.4c-.1.57.34,1.23-.31,1.7A2.71,2.71,0,0,1,42.64,81.4Z" transform="translate(-5.45 -20.42)"/><path class="cls-9" d="M47.07,24.38c.49.2,1.06.27,1.33.82l-.06.07A2.91,2.91,0,0,1,47,24.45Z" transform="translate(-5.45 -20.42)"/><path class="cls-12" d="M9.07,60.38c.5.22,1,.45.81,1.15A1.46,1.46,0,0,1,9.07,60.38Z" transform="translate(-5.45 -20.42)"/><path class="cls-13" d="M58.2,73.4c.69.3.42.8.27,1.28Z" transform="translate(-5.45 -20.42)"/><path class="cls-11" d="M43.75,78.51c-.35.18-.2.83-.76.81a3.19,3.19,0,0,1,.69-1.61h0Z" transform="translate(-5.45 -20.42)"/><path class="cls-10" d="M8.56,36.61H8.29l-.3,0a1.66,1.66,0,0,1,.52-1.1l.07.06a2.26,2.26,0,0,0,0,.26Z" transform="translate(-5.45 -20.42)"/><path class="cls-13" d="M44.52,75.76l0,.59L44,76.9l-.05,0A1.75,1.75,0,0,1,44.52,75.76Z" transform="translate(-5.45 -20.42)"/><path class="cls-9" d="M46.23,23.85a1.13,1.13,0,0,1,.84.53l-.08.07a.89.89,0,0,1-.81-.54Z" transform="translate(-5.45 -20.42)"/><path class="cls-13" d="M43.69,77.71h0c0-.31,0-.65.3-.85l.05,0C44,77.21,44.06,77.55,43.69,77.71Z" transform="translate(-5.45 -20.42)"/><path class="cls-14" d="M69.76,89.64c0-.42.19-.57.58-.56C70.23,89.35,70.09,89.59,69.76,89.64Z" transform="translate(-5.45 -20.42)"/><path class="cls-12" d="M7.94,58.28c.32.07.35.29.28.56C7.94,58.74,7.9,58.53,7.94,58.28Z" transform="translate(-5.45 -20.42)"/><path class="cls-13" d="M44.82,75.81l-.33,0a.57.57,0,0,1,.29-.55c0,.11,0,.22,0,.33Z" transform="translate(-5.45 -20.42)"/><path class="cls-4" d="M42.92,92.32l.36.1-.32.15A.28.28,0,0,1,42.92,92.32Z" transform="translate(-5.45 -20.42)"/><path class="cls-2" d="M98.15,38.5l-.28-.26,0,0h.19Z" transform="translate(-5.45 -20.42)"/><path class="cls-15" d="M58.62,24.15l-.35.27Z" transform="translate(-5.45 -20.42)"/><path class="cls-12" d="M10.43,62.31l.28.3Z" transform="translate(-5.45 -20.42)"/><path class="cls-12" d="M10.19,62l.26.3Z" transform="translate(-5.45 -20.42)"/><path class="cls-12" d="M9.88,61.5l.29.41Z" transform="translate(-5.45 -20.42)"/><path class="cls-14" d="M70.82,88.55l.36-.28Z" transform="translate(-5.45 -20.42)"/><path class="cls-14" d="M70.56,88.87l.28-.34Z" transform="translate(-5.45 -20.42)"/><path class="cls-14" d="M69.47,89.89l.28-.28Z" transform="translate(-5.45 -20.42)"/><path class="cls-7" d="M54.86,52.58l-.25.29,0-.06.27-.26Z" transform="translate(-5.45 -20.42)"/><path class="cls-14" d="M67.86,91.58l.28-.35Z" transform="translate(-5.45 -20.42)"/><path class="cls-14" d="M67.31,92.1l.36-.31Z" transform="translate(-5.45 -20.42)"/><path class="cls-15" d="M81.65,50.39c-4.73-4.33-10.27-5.33-16.39-4-.39.09-.79.13-1.19.19-.29-1.18-.65-2.29-2.17-2.36-.1,0-.24-.15-.29-.26-1-2.09-2.83-2.26-4.77-2.26-1,0-2,0-2.41-1.22-.22-.61-.91-.5-1.42-.26-1,.51-2,.93-2.31-.73,0-.17-.32-.45-.45-.43-1.46.22-2.52-1.08-4-.93a2.06,2.06,0,0,1-2.36-1.55,1.6,1.6,0,0,0-1-1c-.25-.1-.59-.19-.71-.38-1.25-2.19-3.74-1.17-5.47-2.11a1.14,1.14,0,0,0-.9.18c-1.59,1-2.79-.4-4.17-.65a.25.25,0,0,1-.17-.19c0-1.8-1.18-2.19-2.69-2.2-.16,0-.32-.28-.45-.46-.43-.6-.78-.65-1.21,0a1.37,1.37,0,0,1-2.35.34,4.38,4.38,0,0,0-2.3-.73c1.61-2.5,3.24-4.81,5.73-6.37a2.75,2.75,0,0,1,1.76-.53c.77,0,1.54,0,2.3,0,.57,0,1,.1.95.8,0,.93.51,1.17,1.29,1.09a26,26,0,0,1,4.83.34c.92.08,2.31-.26,2.62,1.28,0,.18.28.21.46.13.78-.35,1.2.3,1.36.75.32.94,1.2,1,1.74,1.48A3.65,3.65,0,0,0,50,29h0c0,1.73.53,2.07,2.26,2,1.32,0,3-.16,3.9.53A15.52,15.52,0,0,1,59,34.18c.64.81,1,1.13,1.91,1.07A6.74,6.74,0,0,1,66,37a2,2,0,0,0,1.25.39c2.05.16,4.1.35,6.15.54.09,0,.25,0,.26,0,.5,1.57,2.57,1.57,3.09,3a.88.88,0,0,0,1.07.71c2.16-.15,4.23.84,6.42.57.89-.11,1,.58,1,1.27-.07,1.05.24,1.67,1.45,1.79a7.13,7.13,0,0,0,2,.14c1.7-.32,3.11.64,4.65,1,.2,0,.49.23.52.39.35,1.94,2,1.42,3.17,1.59,1.49.21,1.68.31,1.45,1.79,0,.26-.17.51-.21.78s-.18.79.12,1,.54-.4.93-.31c0,.43.18,1-.54,1.08s-.42.46-.27.81a9.31,9.31,0,0,1-.79,4.43c-.52-.22-.5-.64-.58-1a1.07,1.07,0,0,0-1.12-1c-1.88.09-3.53-1.31-5.47-.84a.46.46,0,0,1-.62-.35c0-.36.26-.41.53-.46s.43-.17.39-.44-.26-.34-.5-.35c-.86,0-1.8-.74-2.48.49-.32.58-.66.21-.72-.3-.09-.79,0-1.92-.69-2.17-1.34-.48-2.65-1.34-4.2-1Z" transform="translate(-5.45 -20.42)"/><path class="cls-2" d="M50,29a3.65,3.65,0,0,1-4.48-.62c-.54-.48-1.42-.54-1.74-1.48-.16-.45-.58-1.1-1.36-.75-.18.08-.42,0-.46-.13-.31-1.54-1.7-1.2-2.62-1.28a26,26,0,0,0-4.83-.34c-.78.08-1.34-.16-1.29-1.09,0-.7-.38-.82-.95-.8-.76,0-1.53,0-2.3,0v-.27c.37,0,.79.12,1.08-.27s.51-.26.81-.27c.43.36,1,.49,1.25,0s.89-.37,1.18-.77h1.09c.67.51,1.45.15,2.17.25a26.45,26.45,0,0,1,6.62,2c.33.15.67.28.68.73l-.06.11.06-.11h1.35a.89.89,0,0,0,.81.54,2.91,2.91,0,0,0,1.35.82c0,.68.83.61,1.09,1.06A1.18,1.18,0,0,0,49.59,28,1.2,1.2,0,0,1,50,29Zm-3.79-3.25c0,.3-.06.66.36.76.18,0,.38-.07.34-.28-.06-.37-.37-.45-.7-.48,0-.51-.11-.88-.74-.77-.23,0-.49.19-.47.39.08.62.62.29,1,.38A1.13,1.13,0,0,0,46.18,25.79ZM34.19,22c1.13.29,2.26.87,3.42.17C36.47,22.18,35.37,21.44,34.19,22Zm9.2,2.12c0-.24-.18-.42-.42-.4s-.29.28-.28.49.09.37.3.35A.42.42,0,0,0,43.39,24.15Zm-3.87-1.73-.2,0s.06.07.09.07S39.48,22.44,39.52,22.42Z" transform="translate(-5.45 -20.42)"/><path class="cls-15" d="M34.27,20.94c-.29.4-.91.18-1.18.77s-.82.39-1.25,0c.18-.35.84-.22.81-.79Z" transform="translate(-5.45 -20.42)"/><path class="cls-15" d="M31,22c-.29.39-.71.23-1.08.27C30.23,21.89,30.65,22,31,22Z" transform="translate(-5.45 -20.42)"/><path class="cls-14" d="M43.69,77.71c.37-.16.32-.5.34-.81l.53-.55a3.21,3.21,0,0,1,1.83.86,4.22,4.22,0,0,0,2.51,1.41c.63,0,1.23.67,1.72,1.21.34.36.65.82,1.15.91,2,.34,2.43,2,3.12,3.51.23.47.29,1,1,1.1s1,.91,1.11,1.66a10.6,10.6,0,0,1,0,1.49c-.08,1.16.33,1.83,1.62,1.64a10.57,10.57,0,0,1-.55,3.43c-.08.27-.21.52-.53.52a.49.49,0,0,1-.5-.53c.16-1.17-.93-1.66-1.28-2.48a22.69,22.69,0,0,0-2.56-3.72,6.31,6.31,0,0,0-2-2.33,1.05,1.05,0,0,1-.47-.79c-.05-.25-.15-.67-.3-.7-2.33-.56-3.31-3.42-6-3.44-1,0-.69-1-.75-1.59Z" transform="translate(-5.45 -20.42)"/><path class="cls-14" d="M57.51,95.68c0,.07-.09.22-.18.26s-.27-.07-.26-.21a.45.45,0,0,1,.16-.31C57.39,95.35,57.46,95.49,57.51,95.68Z" transform="translate(-5.45 -20.42)"/><path class="cls-10" d="M85.42,73.11c-1,.55-1.52,1.62-2.64,2-.53.2-.29.95-.34,1.46-.82.25-1.68.17-2.52.5s-1.28-.44-1.51-1.06c-.57-1.5-1.86-1.67-3.14-1.84a9.8,9.8,0,0,0-2.42,0,5,5,0,0,1-3.33-1.16,11.32,11.32,0,0,0-3.85-1.83,4,4,0,0,1,2.31-3c1.08-.65,1.94-.16,2,1.1,0,.23,0,.45,0,.68,0,1.39.42,1.72,1.87,1.39.71-.16,1.65-.51,2.08-.1,1.19,1.13,2.55.55,3.83.7.62.07,1.19,0,1.17-.85a.7.7,0,0,1,.79-.74c.57,0,.81.34.81.86,0,.9.61,1.13,1.31,1.26s.85-.39.91-1a.7.7,0,0,1,.38-.49c.3-.13.51.11.62.37a1.61,1.61,0,0,0,1.39,1.12Z" transform="translate(-5.45 -20.42)"/><path class="cls-2" d="M97.87,38.24l-.11-.07.13,0Z" transform="translate(-5.45 -20.42)"/><path class="cls-6" d="M25.88,52.83a14.7,14.7,0,0,1-.1,2.49,1.37,1.37,0,0,1-1.25,1,1.85,1.85,0,0,0-2.36.38c-.9.88-2.2.29-3.32.43a1.89,1.89,0,0,1,.89-1.83,3.39,3.39,0,0,0,.73-4.66,10.57,10.57,0,0,0,1.71-5.62c0-.45-.09-1.25.73-1.41a29.68,29.68,0,0,0,2.83,3.77l1,1.09c-.47,0-.95,0-1,.6-.14.91-.22,1.84-.31,2.76A.89.89,0,0,0,25.88,52.83Z" transform="translate(-5.45 -20.42)"/><path class="cls-8" d="M25.88,52.83a.89.89,0,0,1-.53-1c.09-.92.17-1.85.31-2.76.09-.55.57-.6,1-.6l1.9,1.62c-1.44,1.71-.42,5.08,1.89,6.22.47,0,.71.39,1.08.56,0,.08-.07.21-.13.23-2.17.58-2.2,3-3.67,4.2-.52.42-.38,1.09-.8,1.5-.65-.85,0-1.41.49-1.95s.85-1.05.29-1.75c-.08-.09-.18-.28-.14-.35,1.08-2.06-1.05-3.56-.94-5.45C26.7,52.84,26.25,52.84,25.88,52.83Z" transform="translate(-5.45 -20.42)"/><path class="cls-11" d="M30.49,56.34c-2.31-1.14-3.33-4.51-1.89-6.22a6.18,6.18,0,0,1,1.9,1.34c.73.92-.25,1.66-.28,2.49A6.43,6.43,0,0,0,30.49,56.34Z" transform="translate(-5.45 -20.42)"/><path class="cls-1" d="M54.83,52.55l-.27.26c-.45-.15-.89.5-1.34,0-.19-1.27.35-1.81,1.63-1.62Z" transform="translate(-5.45 -20.42)"/><path class="cls-11" d="M81.65,50.39l.52.28a11.78,11.78,0,0,1,3,4.87c-1.13-.38-1.8-1.36-2.67-2.08a2.56,2.56,0,0,0-2.12-.68,48.53,48.53,0,0,1-5.26,0,4.6,4.6,0,0,0-2,.26c-2.28,1-4.72.86-7.11,1.09-.18,0-.45,0-.52,0-1.27,1.53-.94-.1-1.18-.58,1.31-1.31,3.14-1.5,4.68-2.26,2.64-1.29,5.46-.16,8.08-1.16,1.22-.46,2.64.22,4,.31C81.29,50.55,81.49,50.6,81.65,50.39Z" transform="translate(-5.45 -20.42)"/><path class="cls-7" d="M8.56,36.61c0-.27,0-.54,0-.81l.27-.27A.9.9,0,0,1,9.38,35C9.19,35.57,9.22,36.26,8.56,36.61Z" transform="translate(-5.45 -20.42)"/><path class="cls-2" d="M98.42,53.64c-.15-.35-.43-.74.27-.81C98.68,53.13,98.73,53.45,98.42,53.64Z" transform="translate(-5.45 -20.42)"/><path class="cls-14" d="M44.82,75.81v-.27C45,75.64,45,75.73,44.82,75.81Z" transform="translate(-5.45 -20.42)"/><path class="cls-9" d="M8.84,35.53l-.27.27a2.26,2.26,0,0,1,0-.26Z" transform="translate(-5.45 -20.42)"/><path class="cls-15" d="M34.19,22c1.18-.59,2.28.15,3.42.17C36.45,22.9,35.32,22.32,34.19,22Z" transform="translate(-5.45 -20.42)"/><path class="cls-15" d="M46.18,25.79a1.13,1.13,0,0,1-.26,0c-.33-.09-.87.24-1-.38,0-.2.24-.35.47-.39.63-.11.76.26.74.77Z" transform="translate(-5.45 -20.42)"/><path class="cls-15" d="M43.39,24.15a.42.42,0,0,1-.4.44c-.21,0-.29-.17-.3-.35s0-.48.28-.49S43.35,23.91,43.39,24.15Z" transform="translate(-5.45 -20.42)"/><path class="cls-15" d="M46.18,25.79c.33,0,.64.11.7.48,0,.21-.16.32-.34.28-.42-.1-.33-.46-.36-.76Z" transform="translate(-5.45 -20.42)"/><path class="cls-15" d="M39.52,22.42s-.07.06-.11,0-.06,0-.09-.07Z" transform="translate(-5.45 -20.42)"/><path class="cls-15" d="M44.83,23.9l-.06.11.06-.11Z" transform="translate(-5.45 -20.42)"/><path class="cls-16" d="M135,62c0,6.3.12,11.22.6,16.62l-.12.06a114.47,114.47,0,0,0-7.26-13.14L115.26,45h-5.7V85.48h4.92V68.2c0-6.72-.12-11.58-.42-16.68l.18-.06A128.36,128.36,0,0,0,121.8,65l12.84,20.52h5.28V45H135Z" transform="translate(-5.45 -20.42)"/><polygon class="cls-17" points="148.81 46.1 164.53 46.1 164.53 41.78 148.81 41.78 148.81 29 165.43 29 165.43 24.62 143.59 24.62 143.59 65.06 166.33 65.06 166.33 60.68 148.81 60.68 148.81 46.1"/><path class="cls-18" d="M204,62c0,6.3.12,11.22.6,16.62l-.12.06a114.47,114.47,0,0,0-7.26-13.14L184.26,45h-5.7V85.48h4.91V68.2c0-6.72-.12-11.58-.41-16.68l.17-.06A126.72,126.72,0,0,0,190.8,65l12.83,20.52h5.28V45H204Z" transform="translate(-5.45 -20.42)"/><path class="cls-19" d="M221.09,45a3.22,3.22,0,0,0-3.3,3.3,3.27,3.27,0,1,0,3.3-3.3Z" transform="translate(-5.45 -20.42)"/><rect class="cls-20" x="213.01" y="36.02" width="5.28" height="29.04"/><polygon class="cls-21" points="222.61 29.06 234.91 29.06 234.91 65.06 240.19 65.06 240.19 29.06 252.55 29.06 252.55 24.62 222.61 24.62 222.61 29.06"/><path class="cls-22" d="M264.41,62.14h-.24l-.18-5.7h-4.62c.18,2.7.24,5.64.24,9.06v20h5.22V70a14.86,14.86,0,0,1,.24-2.46c.72-4,3.36-6.78,7.08-6.78a7.93,7.93,0,0,1,1.8.18V56a5.71,5.71,0,0,0-1.5-.18C268.91,55.78,265.73,58.24,264.41,62.14Z" transform="translate(-5.45 -20.42)"/><path class="cls-23" d="M299.33,67.66c0-5.82-2.16-11.88-11-11.88a18,18,0,0,0-9.54,2.58l1.2,3.48a14.47,14.47,0,0,1,7.56-2.16c5.94,0,6.6,4.32,6.6,6.72V67c-11.22-.06-17.46,3.78-17.46,10.8,0,4.2,3,8.34,8.88,8.34a10.82,10.82,0,0,0,8.88-4.32h.18l.42,3.66h4.8a40.89,40.89,0,0,1-.48-7Zm-5.1,8a5.51,5.51,0,0,1-.3,1.68,7.23,7.23,0,0,1-7,4.86,4.67,4.67,0,0,1-5-5c0-5.64,6.54-6.66,12.3-6.54Z" transform="translate(-5.45 -20.42)"/><path class="cls-24" d="M320.09,72.76c-1,2.64-1.8,5-2.46,7.44h-.18a74.68,74.68,0,0,0-2.34-7.44l-5.7-16.32h-5.64l11,29h5l11.4-29h-5.52Z" transform="translate(-5.45 -20.42)"/><path class="cls-25" d="M347.15,55.78c-8.46,0-13.62,6.9-13.62,15.66s5.34,14.64,14.28,14.64a23.52,23.52,0,0,0,9.66-1.8l-.9-3.78a19.09,19.09,0,0,1-8,1.5c-5.28,0-9.84-2.94-10-10.08H359a19.91,19.91,0,0,0,.18-2.46C359.15,64.12,356.63,55.78,347.15,55.78Zm-8.52,12.36c.42-3.66,2.76-8.58,8.1-8.58,5.94,0,7.38,5.22,7.32,8.58Z" transform="translate(-5.45 -20.42)"/><rect class="cls-26" x="360.25" y="22.46" width="5.28" height="42.6"/></svg>